<svg xmlns="http://www.w3.org/2000/svg" viewBox="0 0 32 32">
<defs>
  <radialGradient id="rg_radar" cx="50%" cy="70%" r="65%">
    <stop offset="0%" stop-color="#00262E"/><stop offset="100%" stop-color="#010A10"/>
  </radialGradient>
  <filter id="g_ce" x="-50%" y="-50%" width="200%" height="200%">
    <feGaussianBlur stdDeviation="1.71" result="b"/>
    <feMerge><feMergeNode in="b"/><feMergeNode in="SourceGraphic"/></feMerge>
  </filter>
  <!-- Mystical: transparent nebula backdrop -->
  <radialGradient id="m_nbg" cx="50%" cy="50%" r="50%">
    <stop offset="0%"   stop-color="#0C0720" stop-opacity="0.88"/>
    <stop offset="60%"  stop-color="#08041A" stop-opacity="0.72"/>
    <stop offset="88%"  stop-color="#05030E" stop-opacity="0.38"/>
    <stop offset="100%" stop-color="#020108" stop-opacity="0.00"/>
  </radialGradient>
  <!-- Mystical: outer cosmic ring gradient -->
  <radialGradient id="m_ring" cx="50%" cy="50%" r="50%">
    <stop offset="78%"  stop-color="#7744CC" stop-opacity="0.00"/>
    <stop offset="95%"  stop-color="#6633BB" stop-opacity="0.28"/>
    <stop offset="100%" stop-color="#4422AA" stop-opacity="0.08"/>
  </radialGradient>
  <!-- Mystical: ethereal glow filter -->
  <filter id="m_glow" x="-80%" y="-80%" width="260%" height="260%">
    <feGaussianBlur in="SourceGraphic" stdDeviation="2.2" result="blur"/>
    <feMerge><feMergeNode in="blur"/><feMergeNode in="SourceGraphic"/></feMerge>
  </filter>
  <!-- Mystical: sparkle glow filter -->
  <filter id="m_spark" x="-200%" y="-200%" width="500%" height="500%">
    <feGaussianBlur in="SourceGraphic" stdDeviation="1.3" result="blur"/>
    <feMerge><feMergeNode in="blur"/><feMergeNode in="SourceGraphic"/></feMerge>
  </filter>
</defs>
<!-- Mystical nebula backdrop (transparent at edges) -->
<circle cx="16" cy="16" r="16" fill="url(#m_nbg)"/>
<path d="M 4,19 A 12,12 0 0 1 28,19 Z" fill="url(#rg_radar)" stroke="none"/>
<path d="M 4,19 A 12,12 0 0 1 28,19" fill="none" stroke="#0097A7" stroke-width="1.7"/>
<path d="M 8,19 A 8,8 0 0 1 24,19"   fill="none" stroke="#005F6B" stroke-width="0.85" opacity="0.65"/>
<path d="M 12,19 A 4,4 0 0 1 20,19"  fill="none" stroke="#005F6B" stroke-width="0.85" opacity="0.65"/>
<line x1="16" y1="7"  x2="16" y2="19" stroke="#003D47" stroke-width="0.9" opacity="0.6"/>
<line x1="4"  y1="19" x2="28" y2="19" stroke="#003D47" stroke-width="0.9" opacity="0.6"/>
<line x1="16" y1="19" x2="28" y2="8.5" stroke="#00E5FF" stroke-width="2.0" stroke-linecap="round" filter="url(#g_ce)"/>
<circle cx="16" cy="19" r="2.3" fill="#00BCD4" filter="url(#g_ce)"/>
<circle cx="24.5" cy="11.5" r="2.0" fill="#00E5FF" filter="url(#g_ce)"/>
<circle cx="9.5"  cy="14.5" r="1.3" fill="#0097A7" opacity="0.8"/>
<rect x="3"  y="22" width="3.2" height="8"  rx="0.8" fill="#004A52"/>
<rect x="8"  y="20" width="3.2" height="10" rx="0.8" fill="#0097A7"/>
<rect x="13" y="18" width="3.2" height="12" rx="0.8" fill="#00BCD4" filter="url(#g_ce)"/>
<rect x="18" y="21" width="3.2" height="9"  rx="0.8" fill="#0097A7"/>
<rect x="23" y="24" width="3.2" height="6"  rx="0.8" fill="#004A52" opacity="0.8"/>
<!-- Mystical: ethereal aura rings -->
<circle cx="16" cy="16" r="15.5" fill="url(#m_ring)" opacity="1.0"/>
<circle cx="16" cy="16" r="15.2" fill="none" stroke="#7744DD" stroke-width="0.5"
  stroke-dasharray="3 3" opacity="0.28" filter="url(#m_glow)"/>
<!-- Mystical: ethereal sparkle particles -->
<g filter="url(#m_spark)">
  <circle cx="4.0"  cy="4.0"  r="0.70" fill="#B09AFF" opacity="0.60"/>
  <circle cx="28.0" cy="4.5"  r="0.55" fill="#80CCFF" opacity="0.50"/>
  <circle cx="28.5" cy="28.0" r="0.65" fill="#CC88FF" opacity="0.55"/>
  <circle cx="4.5"  cy="28.0" r="0.50" fill="#99DDFF" opacity="0.45"/>
  <circle cx="16.0" cy="2.0"  r="0.45" fill="#FFD0FF" opacity="0.35"/>
</g>
</svg>
