<svg xmlns="http://www.w3.org/2000/svg" viewBox="0 0 32 32">
<defs>
  <linearGradient id="lg_sub" x1="0%" y1="0%" x2="0%" y2="100%">
    <stop offset="0%" stop-color="#7C4DFF"/><stop offset="100%" stop-color="#1A0052"/>
  </linearGradient>
  <filter id="g_bs" x="-40%" y="-60%" width="180%" height="220%">
    <feGaussianBlur stdDeviation="2.17" result="b"/>
    <feMerge><feMergeNode in="b"/><feMergeNode in="SourceGraphic"/></feMerge>
  </filter>
  <filter id="g_bss" x="-30%" y="-30%" width="160%" height="160%">
    <feGaussianBlur stdDeviation="1.24" result="b"/>
    <feMerge><feMergeNode in="b"/><feMergeNode in="SourceGraphic"/></feMerge>
  </filter>
  <!-- Mystical: transparent nebula backdrop -->
  <radialGradient id="m_nbg" cx="50%" cy="50%" r="50%">
    <stop offset="0%"   stop-color="#0C0720" stop-opacity="0.88"/>
    <stop offset="60%"  stop-color="#08041A" stop-opacity="0.72"/>
    <stop offset="88%"  stop-color="#05030E" stop-opacity="0.38"/>
    <stop offset="100%" stop-color="#020108" stop-opacity="0.00"/>
  </radialGradient>
  <!-- Mystical: outer cosmic ring gradient -->
  <radialGradient id="m_ring" cx="50%" cy="50%" r="50%">
    <stop offset="78%"  stop-color="#7744CC" stop-opacity="0.00"/>
    <stop offset="95%"  stop-color="#6633BB" stop-opacity="0.28"/>
    <stop offset="100%" stop-color="#4422AA" stop-opacity="0.08"/>
  </radialGradient>
  <!-- Mystical: ethereal glow filter -->
  <filter id="m_glow" x="-80%" y="-80%" width="260%" height="260%">
    <feGaussianBlur in="SourceGraphic" stdDeviation="2.2" result="blur"/>
    <feMerge><feMergeNode in="blur"/><feMergeNode in="SourceGraphic"/></feMerge>
  </filter>
  <!-- Mystical: sparkle glow filter -->
  <filter id="m_spark" x="-200%" y="-200%" width="500%" height="500%">
    <feGaussianBlur in="SourceGraphic" stdDeviation="1.3" result="blur"/>
    <feMerge><feMergeNode in="blur"/><feMergeNode in="SourceGraphic"/></feMerge>
  </filter>
</defs>
<!-- Mystical nebula backdrop (transparent at edges) -->
<circle cx="16" cy="16" r="16" fill="url(#m_nbg)"/>
<!-- Sub-bass wave (large amplitude, ~1.5 cycles) -->
<path d="M 1,16 Q 5.5,1.5 10,16 Q 14.5,30.5 19,16 Q 23.5,1.5 28,16" fill="none" stroke="url(#lg_sub)" stroke-width="3.5" stroke-linecap="round" filter="url(#g_bs)"/>
<!-- Virtual pitch fill (slight fill to show energy) -->
<path d="M 1,16 Q 5.5,1.5 10,16 Q 14.5,30.5 19,16 Q 23.5,1.5 28,16 L 28,16 Q 23.5,22 19,16 Q 14.5,10 10,16 Q 5.5,22 1,16 Z" fill="#3D1A98" opacity="0.18"/>
<!-- Missing fundamental indicator (dashed, slightly below) -->
<path d="M 1,16 Q 5.5,5 10,16 Q 14.5,27 19,16 Q 23.5,5 28,16" fill="none" stroke="#26C6DA" stroke-width="1.3" stroke-dasharray="2.5 2" stroke-linecap="round" opacity="0.7" filter="url(#g_bss)"/>
<!-- Sub-bass downward arrows -->
<line x1="10" y1="30.5" x2="10" y2="33" stroke="#7C4DFF" stroke-width="1.5" stroke-linecap="round" opacity="0.65"/>
<line x1="19" y1="30.5" x2="19" y2="33" stroke="#7C4DFF" stroke-width="1.4" stroke-linecap="round" opacity="0.5"/>
<!-- Bottom frequency band indicator -->
<rect x="1" y="29" width="30" height="3" rx="1.0" fill="#12004A" opacity="0.55"/>
<rect x="1" y="29" width="30" height="3" rx="1.0" fill="none" stroke="#7C4DFF" stroke-width="0.8" opacity="0.5"/>
<!-- Mystical: ethereal aura rings -->
<circle cx="16" cy="16" r="15.5" fill="url(#m_ring)" opacity="1.0"/>
<circle cx="16" cy="16" r="15.2" fill="none" stroke="#7744DD" stroke-width="0.5"
  stroke-dasharray="3 3" opacity="0.28" filter="url(#m_glow)"/>
<!-- Mystical: ethereal sparkle particles -->
<g filter="url(#m_spark)">
  <circle cx="4.0"  cy="4.0"  r="0.70" fill="#B09AFF" opacity="0.60"/>
  <circle cx="28.0" cy="4.5"  r="0.55" fill="#80CCFF" opacity="0.50"/>
  <circle cx="28.5" cy="28.0" r="0.65" fill="#CC88FF" opacity="0.55"/>
  <circle cx="4.5"  cy="28.0" r="0.50" fill="#99DDFF" opacity="0.45"/>
  <circle cx="16.0" cy="2.0"  r="0.45" fill="#FFD0FF" opacity="0.35"/>
</g>
</svg>
