<svg xmlns="http://www.w3.org/2000/svg" viewBox="0 0 32 32">
<defs>
  <filter id="g_v" x="-50%" y="-50%" width="200%" height="200%">
    <feGaussianBlur stdDeviation="2.02" result="b"/>
    <feMerge><feMergeNode in="b"/><feMergeNode in="SourceGraphic"/></feMerge>
  </filter>
  <filter id="g_vs" x="-40%" y="-40%" width="180%" height="180%">
    <feGaussianBlur stdDeviation="1.08" result="b"/>
    <feMerge><feMergeNode in="b"/><feMergeNode in="SourceGraphic"/></feMerge>
  </filter>
  <!-- Mystical: transparent nebula backdrop -->
  <radialGradient id="m_nbg" cx="50%" cy="50%" r="50%">
    <stop offset="0%"   stop-color="#0C0720" stop-opacity="0.88"/>
    <stop offset="60%"  stop-color="#08041A" stop-opacity="0.72"/>
    <stop offset="88%"  stop-color="#05030E" stop-opacity="0.38"/>
    <stop offset="100%" stop-color="#020108" stop-opacity="0.00"/>
  </radialGradient>
  <!-- Mystical: outer cosmic ring gradient -->
  <radialGradient id="m_ring" cx="50%" cy="50%" r="50%">
    <stop offset="78%"  stop-color="#7744CC" stop-opacity="0.00"/>
    <stop offset="95%"  stop-color="#6633BB" stop-opacity="0.28"/>
    <stop offset="100%" stop-color="#4422AA" stop-opacity="0.08"/>
  </radialGradient>
  <!-- Mystical: ethereal glow filter -->
  <filter id="m_glow" x="-80%" y="-80%" width="260%" height="260%">
    <feGaussianBlur in="SourceGraphic" stdDeviation="2.2" result="blur"/>
    <feMerge><feMergeNode in="blur"/><feMergeNode in="SourceGraphic"/></feMerge>
  </filter>
  <!-- Mystical: sparkle glow filter -->
  <filter id="m_spark" x="-200%" y="-200%" width="500%" height="500%">
    <feGaussianBlur in="SourceGraphic" stdDeviation="1.3" result="blur"/>
    <feMerge><feMergeNode in="blur"/><feMergeNode in="SourceGraphic"/></feMerge>
  </filter>
</defs>
<!-- Mystical nebula backdrop (transparent at edges) -->
<circle cx="16" cy="16" r="16" fill="url(#m_nbg)"/>
<polyline points="0.5,16 2,13 4,19.5 6.5,10 8.5,16" fill="none" stroke="#E91E63" stroke-width="2.1" stroke-linecap="round" stroke-linejoin="round"/>
<rect x="9.5" y="9" width="13" height="14" rx="1.5" fill="#190012" fill-opacity="0.75" stroke="#9C27B0" stroke-width="1.1" stroke-dasharray="2 1.8"/>
<path d="M 9.5,16 Q 16,6.5 22.5,16" fill="none" stroke="#CE93D8" stroke-width="1.6" stroke-linecap="round" stroke-dasharray="2 1.8" filter="url(#g_vs)"/>
<circle cx="12.5" cy="12.5" r="1.5" fill="#7B1FA2" filter="url(#g_v)"/>
<circle cx="16"   cy="8.5"  r="1.8" fill="#AB47BC" filter="url(#g_v)"/>
<circle cx="19.5" cy="12.5" r="1.5" fill="#7B1FA2" filter="url(#g_v)"/>
<line x1="12.5" y1="14" x2="15" y2="10.3" stroke="#9C27B0" stroke-width="0.9" opacity="0.65"/>
<line x1="17" y1="10.3" x2="19.5" y2="14" stroke="#9C27B0" stroke-width="0.9" opacity="0.65"/>
<polyline points="23.5,16 25.5,13 27.5,19.5 30,10 32,16" fill="none" stroke="#E91E63" stroke-width="2.1" stroke-linecap="round" stroke-linejoin="round"/>
<!-- Mystical: ethereal aura rings -->
<circle cx="16" cy="16" r="15.5" fill="url(#m_ring)" opacity="1.0"/>
<circle cx="16" cy="16" r="15.2" fill="none" stroke="#7744DD" stroke-width="0.5"
  stroke-dasharray="3 3" opacity="0.28" filter="url(#m_glow)"/>
<!-- Mystical: ethereal sparkle particles -->
<g filter="url(#m_spark)">
  <circle cx="4.0"  cy="4.0"  r="0.70" fill="#B09AFF" opacity="0.60"/>
  <circle cx="28.0" cy="4.5"  r="0.55" fill="#80CCFF" opacity="0.50"/>
  <circle cx="28.5" cy="28.0" r="0.65" fill="#CC88FF" opacity="0.55"/>
  <circle cx="4.5"  cy="28.0" r="0.50" fill="#99DDFF" opacity="0.45"/>
  <circle cx="16.0" cy="2.0"  r="0.45" fill="#FFD0FF" opacity="0.35"/>
</g>
</svg>
