<svg xmlns="http://www.w3.org/2000/svg" viewBox="0 0 32 32">
<defs>
  <linearGradient id="lg" x1="0%" y1="100%" x2="0%" y2="0%">
    <stop offset="0%" stop-color="#546E7A"/><stop offset="100%" stop-color="#ECEFF1"/>
  </linearGradient>
  <filter id="gl" x="-30%" y="-30%" width="160%" height="160%">
    <feGaussianBlur stdDeviation="1.2" result="b"/>
    <feMerge><feMergeNode in="b"/><feMergeNode in="SourceGraphic"/></feMerge>
  </filter>
  <radialGradient id="m_nbg" cx="50%" cy="50%" r="50%">
    <stop offset="0%"   stop-color="#0C0720" stop-opacity="0.88"/>
    <stop offset="60%"  stop-color="#08041A" stop-opacity="0.72"/>
    <stop offset="88%"  stop-color="#05030E" stop-opacity="0.38"/>
    <stop offset="100%" stop-color="#020108" stop-opacity="0.00"/>
  </radialGradient>
  <radialGradient id="m_ring" cx="50%" cy="50%" r="50%">
    <stop offset="78%"  stop-color="#7744CC" stop-opacity="0.00"/>
    <stop offset="95%"  stop-color="#6633BB" stop-opacity="0.28"/>
    <stop offset="100%" stop-color="#4422AA" stop-opacity="0.08"/>
  </radialGradient>
  <filter id="m_glow" x="-80%" y="-80%" width="260%" height="260%">
    <feGaussianBlur in="SourceGraphic" stdDeviation="2.2" result="blur"/>
    <feMerge><feMergeNode in="blur"/><feMergeNode in="SourceGraphic"/></feMerge>
  </filter>
  <filter id="m_spark" x="-200%" y="-200%" width="500%" height="500%">
    <feGaussianBlur in="SourceGraphic" stdDeviation="1.3" result="blur"/>
    <feMerge><feMergeNode in="blur"/><feMergeNode in="SourceGraphic"/></feMerge>
  </filter>
</defs>
<circle cx="16" cy="16" r="16" fill="url(#m_nbg)"/>
<!-- Entablature (top horizontal beam) -->
<rect x="5" y="7" width="22" height="3" rx="0.6" fill="#080E14" stroke="url(#lg)" stroke-width="1.5" filter="url(#gl)"/>
<!-- Left column -->
<rect x="7"  y="10" width="4" height="14" rx="0.8" fill="#080E14" stroke="#90A4AE" stroke-width="1.4"/>
<!-- Center column -->
<rect x="14" y="10" width="4" height="14" rx="0.8" fill="#080E14" stroke="#B0BEC5" stroke-width="1.6" filter="url(#gl)"/>
<!-- Right column -->
<rect x="21" y="10" width="4" height="14" rx="0.8" fill="#080E14" stroke="#90A4AE" stroke-width="1.4"/>
<!-- Column capitals (top flare) -->
<rect x="5.5" y="9.5"  width="5"  height="1" rx="0.3" fill="#B0BEC5" fill-opacity="0.60"/>
<rect x="12.5" y="9.5" width="7"  height="1" rx="0.3" fill="#ECEFF1" fill-opacity="0.65"/>
<rect x="19.5" y="9.5" width="5"  height="1" rx="0.3" fill="#B0BEC5" fill-opacity="0.60"/>
<!-- Stylobate (base platform) -->
<rect x="4" y="24" width="24" height="3" rx="0.8" fill="#080E14" stroke="#78909C" stroke-width="1.4"/>
<!-- Mystical: ethereal aura rings -->
<circle cx="16" cy="16" r="15.5" fill="url(#m_ring)" opacity="1.0"/>
<circle cx="16" cy="16" r="15.2" fill="none" stroke="#7744DD" stroke-width="0.5"
  stroke-dasharray="3 3" opacity="0.28" filter="url(#m_glow)"/>
<!-- Mystical: ethereal sparkle particles -->
<g filter="url(#m_spark)">
  <circle cx="4.0"  cy="4.0"  r="0.70" fill="#B09AFF" opacity="0.60"/>
  <circle cx="28.0" cy="4.5"  r="0.55" fill="#80CCFF" opacity="0.50"/>
  <circle cx="28.5" cy="28.0" r="0.65" fill="#CC88FF" opacity="0.55"/>
  <circle cx="4.5"  cy="28.0" r="0.50" fill="#99DDFF" opacity="0.45"/>
  <circle cx="16.0" cy="2.0"  r="0.45" fill="#FFD0FF" opacity="0.35"/>
</g>
</svg>
