<svg xmlns="http://www.w3.org/2000/svg" viewBox="0 0 32 32">
<defs>
  <linearGradient id="lg" x1="0%" y1="0%" x2="100%" y2="0%">
    <stop offset="0%" stop-color="#1565C0"/><stop offset="100%" stop-color="#82B1FF"/>
  </linearGradient>
  <filter id="gl" x="-40%" y="-40%" width="180%" height="180%">
    <feGaussianBlur stdDeviation="1.3" result="b"/>
    <feMerge><feMergeNode in="b"/><feMergeNode in="SourceGraphic"/></feMerge>
  </filter>
  <radialGradient id="m_nbg" cx="50%" cy="50%" r="50%">
    <stop offset="0%"   stop-color="#0C0720" stop-opacity="0.88"/>
    <stop offset="60%"  stop-color="#08041A" stop-opacity="0.72"/>
    <stop offset="88%"  stop-color="#05030E" stop-opacity="0.38"/>
    <stop offset="100%" stop-color="#020108" stop-opacity="0.00"/>
  </radialGradient>
  <radialGradient id="m_ring" cx="50%" cy="50%" r="50%">
    <stop offset="78%"  stop-color="#7744CC" stop-opacity="0.00"/>
    <stop offset="95%"  stop-color="#6633BB" stop-opacity="0.28"/>
    <stop offset="100%" stop-color="#4422AA" stop-opacity="0.08"/>
  </radialGradient>
  <filter id="m_glow" x="-80%" y="-80%" width="260%" height="260%">
    <feGaussianBlur in="SourceGraphic" stdDeviation="2.2" result="blur"/>
    <feMerge><feMergeNode in="blur"/><feMergeNode in="SourceGraphic"/></feMerge>
  </filter>
  <filter id="m_spark" x="-200%" y="-200%" width="500%" height="500%">
    <feGaussianBlur in="SourceGraphic" stdDeviation="1.3" result="blur"/>
    <feMerge><feMergeNode in="blur"/><feMergeNode in="SourceGraphic"/></feMerge>
  </filter>
</defs>
<circle cx="16" cy="16" r="16" fill="url(#m_nbg)"/>
<!-- High-pass filter frequency response curve -->
<!-- Axes -->
<line x1="5" y1="24" x2="29" y2="24" stroke="#546E7A" stroke-width="0.8" opacity="0.60"/>
<line x1="5" y1="7"  x2="5"  y2="24" stroke="#546E7A" stroke-width="0.8" opacity="0.60"/>
<!-- Axis arrowheads -->
<polygon points="29,24 26,22 26,26" fill="#546E7A" fill-opacity="0.60"/>
<polygon points="5,7 3,10 7,10" fill="#546E7A" fill-opacity="0.60"/>
<!-- High-pass response: rolls off on left, flat on right -->
<path d="M 5,24 C 7,24 10,23.5 13,20 C 15.5,17 17,10 22,9 L 29,9" fill="none" stroke="url(#lg)" stroke-width="2.5" stroke-linecap="round" filter="url(#gl)"/>
<!-- -3dB cutoff marker -->
<line x1="13" y1="20" x2="13" y2="24" stroke="#82B1FF" stroke-width="0.9" stroke-dasharray="2 2" opacity="0.65"/>
<circle cx="13" cy="20" r="1.2" fill="#82B1FF" opacity="0.85"/>
<!-- Flat passband label hint -->
<line x1="22" y1="9" x2="29" y2="9" stroke="#82B1FF" stroke-width="2.2" stroke-linecap="round" opacity="0.55"/>
<!-- Mystical: ethereal aura rings -->
<circle cx="16" cy="16" r="15.5" fill="url(#m_ring)" opacity="1.0"/>
<circle cx="16" cy="16" r="15.2" fill="none" stroke="#7744DD" stroke-width="0.5"
  stroke-dasharray="3 3" opacity="0.28" filter="url(#m_glow)"/>
<!-- Mystical: ethereal sparkle particles -->
<g filter="url(#m_spark)">
  <circle cx="4.0"  cy="4.0"  r="0.70" fill="#B09AFF" opacity="0.60"/>
  <circle cx="28.0" cy="4.5"  r="0.55" fill="#80CCFF" opacity="0.50"/>
  <circle cx="28.5" cy="28.0" r="0.65" fill="#CC88FF" opacity="0.55"/>
  <circle cx="4.5"  cy="28.0" r="0.50" fill="#99DDFF" opacity="0.45"/>
  <circle cx="16.0" cy="2.0"  r="0.45" fill="#FFD0FF" opacity="0.35"/>
</g>
</svg>
