<svg xmlns="http://www.w3.org/2000/svg" viewBox="0 0 32 32">
<defs>
  <linearGradient id="lg_eq1" x1="0%" y1="0%" x2="100%" y2="0%">
    <stop offset="0%" stop-color="#283593"/><stop offset="100%" stop-color="#5C6BC0"/>
  </linearGradient>
  <linearGradient id="lg_eq2" x1="0%" y1="0%" x2="100%" y2="0%">
    <stop offset="0%" stop-color="#5C6BC0"/><stop offset="100%" stop-color="#9FA8DA"/>
  </linearGradient>
  <filter id="g_eq" x="-40%" y="-40%" width="180%" height="180%">
    <feGaussianBlur stdDeviation="1.08" result="b"/>
    <feMerge><feMergeNode in="b"/><feMergeNode in="SourceGraphic"/></feMerge>
  </filter>
  <!-- Mystical: transparent nebula backdrop -->
  <radialGradient id="m_nbg" cx="50%" cy="50%" r="50%">
    <stop offset="0%"   stop-color="#0C0720" stop-opacity="0.88"/>
    <stop offset="60%"  stop-color="#08041A" stop-opacity="0.72"/>
    <stop offset="88%"  stop-color="#05030E" stop-opacity="0.38"/>
    <stop offset="100%" stop-color="#020108" stop-opacity="0.00"/>
  </radialGradient>
  <!-- Mystical: outer cosmic ring gradient -->
  <radialGradient id="m_ring" cx="50%" cy="50%" r="50%">
    <stop offset="78%"  stop-color="#7744CC" stop-opacity="0.00"/>
    <stop offset="95%"  stop-color="#6633BB" stop-opacity="0.28"/>
    <stop offset="100%" stop-color="#4422AA" stop-opacity="0.08"/>
  </radialGradient>
  <!-- Mystical: ethereal glow filter -->
  <filter id="m_glow" x="-80%" y="-80%" width="260%" height="260%">
    <feGaussianBlur in="SourceGraphic" stdDeviation="2.2" result="blur"/>
    <feMerge><feMergeNode in="blur"/><feMergeNode in="SourceGraphic"/></feMerge>
  </filter>
  <!-- Mystical: sparkle glow filter -->
  <filter id="m_spark" x="-200%" y="-200%" width="500%" height="500%">
    <feGaussianBlur in="SourceGraphic" stdDeviation="1.3" result="blur"/>
    <feMerge><feMergeNode in="blur"/><feMergeNode in="SourceGraphic"/></feMerge>
  </filter>
</defs>
<!-- Mystical nebula backdrop (transparent at edges) -->
<circle cx="16" cy="16" r="16" fill="url(#m_nbg)"/>
<line x1="1" y1="23" x2="31" y2="23" stroke="#141830" stroke-width="1.1"/>
<line x1="1" y1="13" x2="31" y2="13" stroke="#141830" stroke-width="0.6" opacity="0.5"/>
<line x1="1" y1="18" x2="31" y2="18" stroke="#141830" stroke-width="0.6" opacity="0.5"/>
<path d="M 1,23 Q 8,23 9.5,13 Q 11,3.5 13,13 Q 14.5,23 21,23" fill="none" stroke="url(#lg_eq1)" stroke-width="2.1" stroke-linecap="round" filter="url(#g_eq)"/>
<path d="M 6,23 Q 13,23 16,5.5 Q 19,23 26,23" fill="none" stroke="url(#lg_eq2)" stroke-width="2.3" stroke-linecap="round" filter="url(#g_eq)"/>
<path d="M 18,23 Q 22,23 24,13 Q 26,3.5 28.5,13 Q 30.5,22 31,23" fill="none" stroke="#7986CB" stroke-width="2.1" stroke-linecap="round" filter="url(#g_eq)"/>
<circle cx="9.5" cy="13" r="2.0" fill="#0D1030" stroke="#5C6BC0" stroke-width="1.3"/>
<circle cx="16"  cy="5.5" r="2.2" fill="#0D1030" stroke="#9FA8DA" stroke-width="1.7" filter="url(#g_eq)"/>
<circle cx="24"  cy="13" r="2.0" fill="#0D1030" stroke="#5C6BC0" stroke-width="1.3"/>
<line x1="16" y1="24" x2="16" y2="31" stroke="#3949AB" stroke-width="0.8" opacity="0.4" stroke-dasharray="1.5 1.5"/>
<!-- Mystical: ethereal aura rings -->
<circle cx="16" cy="16" r="15.5" fill="url(#m_ring)" opacity="1.0"/>
<circle cx="16" cy="16" r="15.2" fill="none" stroke="#7744DD" stroke-width="0.5"
  stroke-dasharray="3 3" opacity="0.28" filter="url(#m_glow)"/>
<!-- Mystical: ethereal sparkle particles -->
<g filter="url(#m_spark)">
  <circle cx="4.0"  cy="4.0"  r="0.70" fill="#B09AFF" opacity="0.60"/>
  <circle cx="28.0" cy="4.5"  r="0.55" fill="#80CCFF" opacity="0.50"/>
  <circle cx="28.5" cy="28.0" r="0.65" fill="#CC88FF" opacity="0.55"/>
  <circle cx="4.5"  cy="28.0" r="0.50" fill="#99DDFF" opacity="0.45"/>
  <circle cx="16.0" cy="2.0"  r="0.45" fill="#FFD0FF" opacity="0.35"/>
</g>
</svg>
