<svg xmlns="http://www.w3.org/2000/svg" viewBox="0 0 32 32">
<defs>
  <linearGradient id="lg_wrm" x1="0%" y1="0%" x2="100%" y2="0%">
    <stop offset="0%" stop-color="#BF360C"/>
    <stop offset="50%" stop-color="#FFB300"/>
    <stop offset="100%" stop-color="#BF360C"/>
  </linearGradient>
  <filter id="g_ex" x="-40%" y="-40%" width="180%" height="180%">
    <feGaussianBlur stdDeviation="1.71" result="b"/>
    <feMerge><feMergeNode in="b"/><feMergeNode in="SourceGraphic"/></feMerge>
  </filter>
  <filter id="g_exs" x="-30%" y="-30%" width="160%" height="160%">
    <feGaussianBlur stdDeviation="0.93" result="b"/>
    <feMerge><feMergeNode in="b"/><feMergeNode in="SourceGraphic"/></feMerge>
  </filter>
  <!-- Mystical: transparent nebula backdrop -->
  <radialGradient id="m_nbg" cx="50%" cy="50%" r="50%">
    <stop offset="0%"   stop-color="#0C0720" stop-opacity="0.88"/>
    <stop offset="60%"  stop-color="#08041A" stop-opacity="0.72"/>
    <stop offset="88%"  stop-color="#05030E" stop-opacity="0.38"/>
    <stop offset="100%" stop-color="#020108" stop-opacity="0.00"/>
  </radialGradient>
  <!-- Mystical: outer cosmic ring gradient -->
  <radialGradient id="m_ring" cx="50%" cy="50%" r="50%">
    <stop offset="78%"  stop-color="#7744CC" stop-opacity="0.00"/>
    <stop offset="95%"  stop-color="#6633BB" stop-opacity="0.28"/>
    <stop offset="100%" stop-color="#4422AA" stop-opacity="0.08"/>
  </radialGradient>
  <!-- Mystical: ethereal glow filter -->
  <filter id="m_glow" x="-80%" y="-80%" width="260%" height="260%">
    <feGaussianBlur in="SourceGraphic" stdDeviation="2.2" result="blur"/>
    <feMerge><feMergeNode in="blur"/><feMergeNode in="SourceGraphic"/></feMerge>
  </filter>
  <!-- Mystical: sparkle glow filter -->
  <filter id="m_spark" x="-200%" y="-200%" width="500%" height="500%">
    <feGaussianBlur in="SourceGraphic" stdDeviation="1.3" result="blur"/>
    <feMerge><feMergeNode in="blur"/><feMergeNode in="SourceGraphic"/></feMerge>
  </filter>
</defs>
<!-- Mystical nebula backdrop (transparent at edges) -->
<circle cx="16" cy="16" r="16" fill="url(#m_nbg)"/>
<path d="M 1,21 Q 8.75,5 16,21 Q 23.25,37 31,21" fill="none" stroke="url(#lg_wrm)" stroke-width="2.9" stroke-linecap="round" filter="url(#g_ex)"/>
<path d="M 1,21 Q 4.875,13 8.75,21 Q 12.625,29 16.5,21 Q 20.375,13 24.25,21 Q 28.125,29 32,21" fill="none" stroke="#FFB300" stroke-width="1.2" stroke-linecap="round" opacity="0.7"/>
<path d="M 1,21 Q 3.5,15 6,21 Q 8.5,27 11,21 Q 13.5,15 16,21 Q 18.5,27 21,21 Q 23.5,15 26,21 Q 28.5,27 31,21" fill="none" stroke="#FFD54F" stroke-width="0.85" stroke-linecap="round" opacity="0.5"/>
<line x1="8.5"  y1="12" x2="7.5"  y2="7.5" stroke="#D4A230" stroke-width="1.6" stroke-linecap="round" filter="url(#g_exs)"/>
<line x1="16"   y1="8"  x2="16"   y2="3.5" stroke="#FFD040" stroke-width="2.1" stroke-linecap="round" filter="url(#g_ex)"/>
<line x1="23.5" y1="12" x2="24.5" y2="7.5" stroke="#D4A230" stroke-width="1.6" stroke-linecap="round" filter="url(#g_exs)"/>
<circle cx="16" cy="3.5" r="1.9" fill="#FFD040" filter="url(#g_ex)"/>
<!-- Mystical: ethereal aura rings -->
<circle cx="16" cy="16" r="15.5" fill="url(#m_ring)" opacity="1.0"/>
<circle cx="16" cy="16" r="15.2" fill="none" stroke="#7744DD" stroke-width="0.5"
  stroke-dasharray="3 3" opacity="0.28" filter="url(#m_glow)"/>
<!-- Mystical: ethereal sparkle particles -->
<g filter="url(#m_spark)">
  <circle cx="4.0"  cy="4.0"  r="0.70" fill="#B09AFF" opacity="0.60"/>
  <circle cx="28.0" cy="4.5"  r="0.55" fill="#80CCFF" opacity="0.50"/>
  <circle cx="28.5" cy="28.0" r="0.65" fill="#CC88FF" opacity="0.55"/>
  <circle cx="4.5"  cy="28.0" r="0.50" fill="#99DDFF" opacity="0.45"/>
  <circle cx="16.0" cy="2.0"  r="0.45" fill="#FFD0FF" opacity="0.35"/>
</g>
</svg>
