<svg xmlns="http://www.w3.org/2000/svg" viewBox="0 0 32 32">
<defs>
  <filter id="g_hm" x="-40%" y="-40%" width="180%" height="180%">
    <feGaussianBlur stdDeviation="1.24" result="b"/>
    <feMerge><feMergeNode in="b"/><feMergeNode in="SourceGraphic"/></feMerge>
  </filter>
  <!-- Mystical: transparent nebula backdrop -->
  <radialGradient id="m_nbg" cx="50%" cy="50%" r="50%">
    <stop offset="0%"   stop-color="#0C0720" stop-opacity="0.88"/>
    <stop offset="60%"  stop-color="#08041A" stop-opacity="0.72"/>
    <stop offset="88%"  stop-color="#05030E" stop-opacity="0.38"/>
    <stop offset="100%" stop-color="#020108" stop-opacity="0.00"/>
  </radialGradient>
  <!-- Mystical: outer cosmic ring gradient -->
  <radialGradient id="m_ring" cx="50%" cy="50%" r="50%">
    <stop offset="78%"  stop-color="#7744CC" stop-opacity="0.00"/>
    <stop offset="95%"  stop-color="#6633BB" stop-opacity="0.28"/>
    <stop offset="100%" stop-color="#4422AA" stop-opacity="0.08"/>
  </radialGradient>
  <!-- Mystical: ethereal glow filter -->
  <filter id="m_glow" x="-80%" y="-80%" width="260%" height="260%">
    <feGaussianBlur in="SourceGraphic" stdDeviation="2.2" result="blur"/>
    <feMerge><feMergeNode in="blur"/><feMergeNode in="SourceGraphic"/></feMerge>
  </filter>
  <!-- Mystical: sparkle glow filter -->
  <filter id="m_spark" x="-200%" y="-200%" width="500%" height="500%">
    <feGaussianBlur in="SourceGraphic" stdDeviation="1.3" result="blur"/>
    <feMerge><feMergeNode in="blur"/><feMergeNode in="SourceGraphic"/></feMerge>
  </filter>
</defs>
<!-- Mystical nebula backdrop (transparent at edges) -->
<circle cx="16" cy="16" r="16" fill="url(#m_nbg)"/>
<path d="M 2,12 Q 9.5,2 16,12 Q 22.5,22 30,12" fill="none" stroke="#8E24AA" stroke-width="2.1" stroke-linecap="round"/>
<path d="M 2,12 Q 9.5,2 16,12 Q 22.5,22 30,12" fill="none" stroke="#CE93D8" stroke-width="0.55" opacity="0.4"/>
<rect x="12" y="6.5" width="8" height="11" rx="1.2" fill="#180018" fill-opacity="0.85" stroke="#8E24AA" stroke-width="1.0" stroke-dasharray="2 1.8"/>
<line x1="13.5" y1="8"    x2="19"   y2="16"   stroke="#E040FB" stroke-width="1.6" stroke-linecap="round" filter="url(#g_hm)"/>
<line x1="19"   y1="8"    x2="13.5" y2="16"   stroke="#E040FB" stroke-width="1.6" stroke-linecap="round" filter="url(#g_hm)"/>
<line x1="1" y1="22" x2="31" y2="22" stroke="#5E1678" stroke-width="1.0" opacity="0.5" stroke-dasharray="2 2"/>
<line x1="10.5" y1="22.5" x2="10.5" y2="24.5" stroke="#8E24AA" stroke-width="1.1" stroke-linecap="round" opacity="0.75"/>
<line x1="22"   y1="22.5" x2="22"   y2="24.5" stroke="#8E24AA" stroke-width="1.1" stroke-linecap="round" opacity="0.75"/>
<!-- Mystical: ethereal aura rings -->
<circle cx="16" cy="16" r="15.5" fill="url(#m_ring)" opacity="1.0"/>
<circle cx="16" cy="16" r="15.2" fill="none" stroke="#7744DD" stroke-width="0.5"
  stroke-dasharray="3 3" opacity="0.28" filter="url(#m_glow)"/>
<!-- Mystical: ethereal sparkle particles -->
<g filter="url(#m_spark)">
  <circle cx="4.0"  cy="4.0"  r="0.70" fill="#B09AFF" opacity="0.60"/>
  <circle cx="28.0" cy="4.5"  r="0.55" fill="#80CCFF" opacity="0.50"/>
  <circle cx="28.5" cy="28.0" r="0.65" fill="#CC88FF" opacity="0.55"/>
  <circle cx="4.5"  cy="28.0" r="0.50" fill="#99DDFF" opacity="0.45"/>
  <circle cx="16.0" cy="2.0"  r="0.45" fill="#FFD0FF" opacity="0.35"/>
</g>
</svg>
