<svg xmlns="http://www.w3.org/2000/svg" viewBox="0 0 32 32">
<defs>
  <radialGradient id="rg_init" cx="50%" cy="50%" r="50%">
    <stop offset="0%" stop-color="#D4A230"/><stop offset="100%" stop-color="#3D2200"/>
  </radialGradient>
  <filter id="g_gold" x="-50%" y="-50%" width="200%" height="200%">
    <feGaussianBlur stdDeviation="2.48" result="b"/>
    <feMerge><feMergeNode in="b"/><feMergeNode in="SourceGraphic"/></feMerge>
  </filter>
  <filter id="g_cyan" x="-50%" y="-50%" width="200%" height="200%">
    <feGaussianBlur stdDeviation="1.40" result="b"/>
    <feMerge><feMergeNode in="b"/><feMergeNode in="SourceGraphic"/></feMerge>
  </filter>
  <!-- Mystical: transparent nebula backdrop -->
  <radialGradient id="m_nbg" cx="50%" cy="50%" r="50%">
    <stop offset="0%"   stop-color="#0C0720" stop-opacity="0.88"/>
    <stop offset="60%"  stop-color="#08041A" stop-opacity="0.72"/>
    <stop offset="88%"  stop-color="#05030E" stop-opacity="0.38"/>
    <stop offset="100%" stop-color="#020108" stop-opacity="0.00"/>
  </radialGradient>
  <!-- Mystical: outer cosmic ring gradient -->
  <radialGradient id="m_ring" cx="50%" cy="50%" r="50%">
    <stop offset="78%"  stop-color="#7744CC" stop-opacity="0.00"/>
    <stop offset="95%"  stop-color="#6633BB" stop-opacity="0.28"/>
    <stop offset="100%" stop-color="#4422AA" stop-opacity="0.08"/>
  </radialGradient>
  <!-- Mystical: ethereal glow filter -->
  <filter id="m_glow" x="-80%" y="-80%" width="260%" height="260%">
    <feGaussianBlur in="SourceGraphic" stdDeviation="2.2" result="blur"/>
    <feMerge><feMergeNode in="blur"/><feMergeNode in="SourceGraphic"/></feMerge>
  </filter>
  <!-- Mystical: sparkle glow filter -->
  <filter id="m_spark" x="-200%" y="-200%" width="500%" height="500%">
    <feGaussianBlur in="SourceGraphic" stdDeviation="1.3" result="blur"/>
    <feMerge><feMergeNode in="blur"/><feMergeNode in="SourceGraphic"/></feMerge>
  </filter>
</defs>
<!-- Mystical nebula backdrop (transparent at edges) -->
<circle cx="16" cy="16" r="16" fill="url(#m_nbg)"/>
<polygon points="16,1 28,8 28,24 16,31 4,24 4,8" fill="#06091A" stroke="#1A2540" stroke-width="0.6"/>
<circle cx="16" cy="15" r="12" fill="none" stroke="#D4A230" stroke-width="1.3" stroke-dasharray="4.5 3" stroke-linecap="round" filter="url(#g_gold)"/>
<ellipse cx="16" cy="15" rx="12" ry="4" fill="none" stroke="#00C8D8" stroke-width="1.1" filter="url(#g_cyan)"/>
<ellipse cx="16" cy="15" rx="4" ry="12" fill="none" stroke="#C89020" stroke-width="0.9" opacity="0.7"/>
<polygon points="16,9.5 20.5,15 16,20.5 11.5,15" fill="#170E00" stroke="#AA7800" stroke-width="0.5" opacity="0.6"/>
<polygon points="16,9.5 20.5,15 16,20.5 11.5,15" fill="url(#rg_init)" stroke="#FFD060" stroke-width="1.0" filter="url(#g_gold)"/>
<line x1="16" y1="9.5" x2="16" y2="20.5" stroke="#FFD060" stroke-width="0.6" opacity="0.4"/>
<line x1="11.5" y1="15" x2="20.5" y2="15" stroke="#FFD060" stroke-width="0.6" opacity="0.4"/>
<polyline points="3,28 5.5,26 8,29 10.5,26.5 13,28 15.5,26 18,28 20.5,26.5 23,29 25.5,26 28,28" fill="none" stroke="#00C8D8" stroke-width="1.3" stroke-linecap="round" stroke-linejoin="round" filter="url(#g_cyan)"/>
<!-- Mystical: ethereal aura rings -->
<circle cx="16" cy="16" r="15.5" fill="url(#m_ring)" opacity="1.0"/>
<circle cx="16" cy="16" r="15.2" fill="none" stroke="#7744DD" stroke-width="0.5"
  stroke-dasharray="3 3" opacity="0.28" filter="url(#m_glow)"/>
<!-- Mystical: ethereal sparkle particles -->
<g filter="url(#m_spark)">
  <circle cx="4.0"  cy="4.0"  r="0.70" fill="#B09AFF" opacity="0.60"/>
  <circle cx="28.0" cy="4.5"  r="0.55" fill="#80CCFF" opacity="0.50"/>
  <circle cx="28.5" cy="28.0" r="0.65" fill="#CC88FF" opacity="0.55"/>
  <circle cx="4.5"  cy="28.0" r="0.50" fill="#99DDFF" opacity="0.45"/>
  <circle cx="16.0" cy="2.0"  r="0.45" fill="#FFD0FF" opacity="0.35"/>
</g>
</svg>
