<svg xmlns="http://www.w3.org/2000/svg" viewBox="0 0 32 32">
<defs>
  <radialGradient id="rg" cx="40%" cy="35%" r="55%">
    <stop offset="0%"   stop-color="#CE93D8" stop-opacity="0.80"/>
    <stop offset="50%"  stop-color="#7B1FA2" stop-opacity="0.60"/>
    <stop offset="100%" stop-color="#1A0030" stop-opacity="0.90"/>
  </radialGradient>
  <filter id="gl" x="-40%" y="-40%" width="180%" height="180%">
    <feGaussianBlur stdDeviation="1.8" result="b"/>
    <feMerge><feMergeNode in="b"/><feMergeNode in="SourceGraphic"/></feMerge>
  </filter>
  <radialGradient id="m_nbg" cx="50%" cy="50%" r="50%">
    <stop offset="0%"   stop-color="#0C0720" stop-opacity="0.88"/>
    <stop offset="60%"  stop-color="#08041A" stop-opacity="0.72"/>
    <stop offset="88%"  stop-color="#05030E" stop-opacity="0.38"/>
    <stop offset="100%" stop-color="#020108" stop-opacity="0.00"/>
  </radialGradient>
  <radialGradient id="m_ring" cx="50%" cy="50%" r="50%">
    <stop offset="78%"  stop-color="#7744CC" stop-opacity="0.00"/>
    <stop offset="95%"  stop-color="#6633BB" stop-opacity="0.28"/>
    <stop offset="100%" stop-color="#4422AA" stop-opacity="0.08"/>
  </radialGradient>
  <filter id="m_glow" x="-80%" y="-80%" width="260%" height="260%">
    <feGaussianBlur in="SourceGraphic" stdDeviation="2.2" result="blur"/>
    <feMerge><feMergeNode in="blur"/><feMergeNode in="SourceGraphic"/></feMerge>
  </filter>
  <filter id="m_spark" x="-200%" y="-200%" width="500%" height="500%">
    <feGaussianBlur in="SourceGraphic" stdDeviation="1.3" result="blur"/>
    <feMerge><feMergeNode in="blur"/><feMergeNode in="SourceGraphic"/></feMerge>
  </filter>
</defs>
<circle cx="16" cy="16" r="16" fill="url(#m_nbg)"/>
<!-- Crystal ball sphere -->
<circle cx="16" cy="17" r="11" fill="url(#rg)" filter="url(#gl)"/>
<!-- Sphere rim/edge highlight -->
<circle cx="16" cy="17" r="11" fill="none" stroke="#9C27B0" stroke-width="1.4" opacity="0.75"/>
<!-- Inner swirling nebula -->
<path d="M 10,14 C 13,11 19,11 22,14 C 25,17 22,22 18,22 C 14,22 11,19 10,14 Z" fill="none" stroke="#E1BEE7" stroke-width="0.9" opacity="0.45"/>
<!-- Highlight glare -->
<ellipse cx="13" cy="13" rx="3.5" ry="2" transform="rotate(-30 13 13)" fill="#FFFFFF" fill-opacity="0.30"/>
<!-- Stand base -->
<rect x="11" y="27.5" width="10" height="2" rx="1.0" fill="#4A0072" fill-opacity="0.90" stroke="#9C27B0" stroke-width="1.0"/>
<rect x="14.5" y="26" width="3" height="3" rx="0.5" fill="#4A0072" fill-opacity="0.85" stroke="#7B1FA2" stroke-width="0.8"/>
<!-- Star sparkles outside sphere -->
<circle cx="5"  cy="8"  r="0.8" fill="#E040FB" opacity="0.75" filter="url(#gl)"/>
<circle cx="27" cy="7"  r="0.7" fill="#CE93D8" opacity="0.65"/>
<circle cx="26" cy="25" r="0.7" fill="#E040FB" opacity="0.60"/>
<!-- Mystical: ethereal aura rings -->
<circle cx="16" cy="16" r="15.5" fill="url(#m_ring)" opacity="1.0"/>
<circle cx="16" cy="16" r="15.2" fill="none" stroke="#7744DD" stroke-width="0.5"
  stroke-dasharray="3 3" opacity="0.28" filter="url(#m_glow)"/>
<!-- Mystical: ethereal sparkle particles -->
<g filter="url(#m_spark)">
  <circle cx="4.0"  cy="4.0"  r="0.70" fill="#B09AFF" opacity="0.60"/>
  <circle cx="28.0" cy="4.5"  r="0.55" fill="#80CCFF" opacity="0.50"/>
  <circle cx="28.5" cy="28.0" r="0.65" fill="#CC88FF" opacity="0.55"/>
  <circle cx="4.5"  cy="28.0" r="0.50" fill="#99DDFF" opacity="0.45"/>
  <circle cx="16.0" cy="2.0"  r="0.45" fill="#FFD0FF" opacity="0.35"/>
</g>
</svg>
