<svg xmlns="http://www.w3.org/2000/svg" viewBox="0 0 32 32">
<defs>
  <linearGradient id="lg" x1="0%" y1="0%" x2="100%" y2="100%">
    <stop offset="0%" stop-color="#AD1457"/><stop offset="100%" stop-color="#FF80AB"/>
  </linearGradient>
  <filter id="gl" x="-40%" y="-40%" width="180%" height="180%">
    <feGaussianBlur stdDeviation="1.5" result="b"/>
    <feMerge><feMergeNode in="b"/><feMergeNode in="SourceGraphic"/></feMerge>
  </filter>
  <radialGradient id="m_nbg" cx="50%" cy="50%" r="50%">
    <stop offset="0%"   stop-color="#0C0720" stop-opacity="0.88"/>
    <stop offset="60%"  stop-color="#08041A" stop-opacity="0.72"/>
    <stop offset="88%"  stop-color="#05030E" stop-opacity="0.38"/>
    <stop offset="100%" stop-color="#020108" stop-opacity="0.00"/>
  </radialGradient>
  <radialGradient id="m_ring" cx="50%" cy="50%" r="50%">
    <stop offset="78%"  stop-color="#7744CC" stop-opacity="0.00"/>
    <stop offset="95%"  stop-color="#6633BB" stop-opacity="0.28"/>
    <stop offset="100%" stop-color="#4422AA" stop-opacity="0.08"/>
  </radialGradient>
  <filter id="m_glow" x="-80%" y="-80%" width="260%" height="260%">
    <feGaussianBlur in="SourceGraphic" stdDeviation="2.2" result="blur"/>
    <feMerge><feMergeNode in="blur"/><feMergeNode in="SourceGraphic"/></feMerge>
  </filter>
  <filter id="m_spark" x="-200%" y="-200%" width="500%" height="500%">
    <feGaussianBlur in="SourceGraphic" stdDeviation="1.3" result="blur"/>
    <feMerge><feMergeNode in="blur"/><feMergeNode in="SourceGraphic"/></feMerge>
  </filter>
</defs>
<circle cx="16" cy="16" r="16" fill="url(#m_nbg)"/>
<!-- Outer ear (helix) -->
<path d="M 11,7 C 7,8 5,11 5,16 C 5,22 8,27 12,28 C 14,28.5 16,28 16,26 C 14,25 13,22 14,20" fill="none" stroke="url(#lg)" stroke-width="2.3" stroke-linecap="round" filter="url(#gl)"/>
<!-- Inner ear shape -->
<path d="M 16,9 C 13,9.5 11,12 11,16 C 11,20 13,22 15,22 C 16.5,22 17.5,21 17,20 C 16.5,19 15,18.5 15,16 C 15,13.5 17,12 19,12 C 21,12 22,14 21,16" fill="none" stroke="#F48FB1" stroke-width="1.8" stroke-linecap="round" opacity="0.80"/>
<!-- Ear canal entrance -->
<circle cx="20" cy="17" r="1.8" fill="none" stroke="#FF80AB" stroke-width="1.4" opacity="0.75"/>
<!-- Tragus hint -->
<path d="M 12,26 C 14,24 15,22 14,20" fill="none" stroke="#F48FB1" stroke-width="1.3" stroke-linecap="round" opacity="0.65"/>
<!-- Mystical: ethereal aura rings -->
<circle cx="16" cy="16" r="15.5" fill="url(#m_ring)" opacity="1.0"/>
<circle cx="16" cy="16" r="15.2" fill="none" stroke="#7744DD" stroke-width="0.5"
  stroke-dasharray="3 3" opacity="0.28" filter="url(#m_glow)"/>
<!-- Mystical: ethereal sparkle particles -->
<g filter="url(#m_spark)">
  <circle cx="4.0"  cy="4.0"  r="0.70" fill="#B09AFF" opacity="0.60"/>
  <circle cx="28.0" cy="4.5"  r="0.55" fill="#80CCFF" opacity="0.50"/>
  <circle cx="28.5" cy="28.0" r="0.65" fill="#CC88FF" opacity="0.55"/>
  <circle cx="4.5"  cy="28.0" r="0.50" fill="#99DDFF" opacity="0.45"/>
  <circle cx="16.0" cy="2.0"  r="0.45" fill="#FFD0FF" opacity="0.35"/>
</g>
</svg>
