<svg xmlns="http://www.w3.org/2000/svg" viewBox="0 0 32 32">
<defs>
  <linearGradient id="lg_clean" x1="0%" y1="0%" x2="100%" y2="0%">
    <stop offset="0%" stop-color="#0277BD"/><stop offset="100%" stop-color="#00E5FF"/>
  </linearGradient>
  <filter id="g_cl" x="-40%" y="-40%" width="180%" height="180%">
    <feGaussianBlur stdDeviation="1.40" result="b"/>
    <feMerge><feMergeNode in="b"/><feMergeNode in="SourceGraphic"/></feMerge>
  </filter>
  <!-- Mystical: transparent nebula backdrop -->
  <radialGradient id="m_nbg" cx="50%" cy="50%" r="50%">
    <stop offset="0%"   stop-color="#0C0720" stop-opacity="0.88"/>
    <stop offset="60%"  stop-color="#08041A" stop-opacity="0.72"/>
    <stop offset="88%"  stop-color="#05030E" stop-opacity="0.38"/>
    <stop offset="100%" stop-color="#020108" stop-opacity="0.00"/>
  </radialGradient>
  <!-- Mystical: outer cosmic ring gradient -->
  <radialGradient id="m_ring" cx="50%" cy="50%" r="50%">
    <stop offset="78%"  stop-color="#7744CC" stop-opacity="0.00"/>
    <stop offset="95%"  stop-color="#6633BB" stop-opacity="0.28"/>
    <stop offset="100%" stop-color="#4422AA" stop-opacity="0.08"/>
  </radialGradient>
  <!-- Mystical: ethereal glow filter -->
  <filter id="m_glow" x="-80%" y="-80%" width="260%" height="260%">
    <feGaussianBlur in="SourceGraphic" stdDeviation="2.2" result="blur"/>
    <feMerge><feMergeNode in="blur"/><feMergeNode in="SourceGraphic"/></feMerge>
  </filter>
  <!-- Mystical: sparkle glow filter -->
  <filter id="m_spark" x="-200%" y="-200%" width="500%" height="500%">
    <feGaussianBlur in="SourceGraphic" stdDeviation="1.3" result="blur"/>
    <feMerge><feMergeNode in="blur"/><feMergeNode in="SourceGraphic"/></feMerge>
  </filter>
</defs>
<!-- Mystical nebula backdrop (transparent at edges) -->
<circle cx="16" cy="16" r="16" fill="url(#m_nbg)"/>
<rect x="0.5" y="6" width="13.5" height="20" rx="1.2" fill="#040C16" fill-opacity="0.8"/>
<polyline points="1.5,16 2.5,11 3.5,22 4.5,9.5 5.5,23 6.5,12 7.5,21 8.5,10 9.5,24 10.5,13 11.5,17.5 12.5,10.5 13.5,16" fill="none" stroke="#64B5F6" stroke-width="1.5" stroke-linecap="round" stroke-linejoin="round" opacity="0.75"/>
<circle cx="4"  cy="8"  r="0.9" fill="#64B5F6" opacity="0.5"/>
<circle cx="9"  cy="25" r="0.8" fill="#64B5F6" opacity="0.45"/>
<circle cx="12" cy="8"  r="0.7" fill="#64B5F6" opacity="0.5"/>
<polyline points="15,7.5 13,16 15,24.5" fill="none" stroke="#4FC3F7" stroke-width="2.2" stroke-linecap="round" stroke-linejoin="round" filter="url(#g_cl)"/>
<polyline points="17,7.5 15,16 17,24.5" fill="none" stroke="#0277BD" stroke-width="1.0" stroke-linecap="round" stroke-linejoin="round" opacity="0.55"/>
<rect x="17.5" y="6" width="13.5" height="20" rx="1.2" fill="#020B14" fill-opacity="0.8"/>
<path d="M 17.5,16 C 20,16 21.2,11 23.8,11 C 26.4,11 26.4,21 29,21 C 30.4,21 30.8,16 32,16" fill="none" stroke="url(#lg_clean)" stroke-width="2.2" stroke-linecap="round" filter="url(#g_cl)"/>
<!-- Mystical: ethereal aura rings -->
<circle cx="16" cy="16" r="15.5" fill="url(#m_ring)" opacity="1.0"/>
<circle cx="16" cy="16" r="15.2" fill="none" stroke="#7744DD" stroke-width="0.5"
  stroke-dasharray="3 3" opacity="0.28" filter="url(#m_glow)"/>
<!-- Mystical: ethereal sparkle particles -->
<g filter="url(#m_spark)">
  <circle cx="4.0"  cy="4.0"  r="0.70" fill="#B09AFF" opacity="0.60"/>
  <circle cx="28.0" cy="4.5"  r="0.55" fill="#80CCFF" opacity="0.50"/>
  <circle cx="28.5" cy="28.0" r="0.65" fill="#CC88FF" opacity="0.55"/>
  <circle cx="4.5"  cy="28.0" r="0.50" fill="#99DDFF" opacity="0.45"/>
  <circle cx="16.0" cy="2.0"  r="0.45" fill="#FFD0FF" opacity="0.35"/>
</g>
</svg>
