<svg xmlns="http://www.w3.org/2000/svg" viewBox="0 0 32 32">
<defs>
  <filter id="g_gn" x="-40%" y="-40%" width="180%" height="180%">
    <feGaussianBlur stdDeviation="1.24" result="b"/>
    <feMerge><feMergeNode in="b"/><feMergeNode in="SourceGraphic"/></feMerge>
  </filter>
  <!-- Mystical: transparent nebula backdrop -->
  <radialGradient id="m_nbg" cx="50%" cy="50%" r="50%">
    <stop offset="0%"   stop-color="#0C0720" stop-opacity="0.88"/>
    <stop offset="60%"  stop-color="#08041A" stop-opacity="0.72"/>
    <stop offset="88%"  stop-color="#05030E" stop-opacity="0.38"/>
    <stop offset="100%" stop-color="#020108" stop-opacity="0.00"/>
  </radialGradient>
  <!-- Mystical: outer cosmic ring gradient -->
  <radialGradient id="m_ring" cx="50%" cy="50%" r="50%">
    <stop offset="78%"  stop-color="#7744CC" stop-opacity="0.00"/>
    <stop offset="95%"  stop-color="#6633BB" stop-opacity="0.28"/>
    <stop offset="100%" stop-color="#4422AA" stop-opacity="0.08"/>
  </radialGradient>
  <!-- Mystical: ethereal glow filter -->
  <filter id="m_glow" x="-80%" y="-80%" width="260%" height="260%">
    <feGaussianBlur in="SourceGraphic" stdDeviation="2.2" result="blur"/>
    <feMerge><feMergeNode in="blur"/><feMergeNode in="SourceGraphic"/></feMerge>
  </filter>
  <!-- Mystical: sparkle glow filter -->
  <filter id="m_spark" x="-200%" y="-200%" width="500%" height="500%">
    <feGaussianBlur in="SourceGraphic" stdDeviation="1.3" result="blur"/>
    <feMerge><feMergeNode in="blur"/><feMergeNode in="SourceGraphic"/></feMerge>
  </filter>
</defs>
<!-- Mystical nebula backdrop (transparent at edges) -->
<circle cx="16" cy="16" r="16" fill="url(#m_nbg)"/>
<line x1="5"  y1="4" x2="5"  y2="29" stroke="#173020" stroke-width="0.7"/>
<line x1="13" y1="4" x2="13" y2="29" stroke="#173020" stroke-width="0.7"/>
<line x1="21" y1="4" x2="21" y2="29" stroke="#173020" stroke-width="0.7"/>
<line x1="29" y1="4" x2="29" y2="29" stroke="#173020" stroke-width="0.7"/>
<line x1="1" y1="11" x2="31" y2="11" stroke="#173020" stroke-width="0.7"/>
<line x1="1" y1="20" x2="31" y2="20" stroke="#173020" stroke-width="0.7"/>
<ellipse cx="10" cy="17" rx="4.2" ry="2.8" fill="none" stroke="#2E7D32" stroke-width="1.0" opacity="0.35"/>
<line x1="14.2" y1="17" x2="14.2" y2="7" stroke="#2E7D32" stroke-width="1.0" opacity="0.35"/>
<ellipse cx="18" cy="20" rx="4.5" ry="3.0" fill="#081A0E" stroke="#66BB6A" stroke-width="2.1" filter="url(#g_gn)"/>
<line x1="22.5" y1="20" x2="22.5" y2="8" stroke="#66BB6A" stroke-width="2.0" stroke-linecap="round"/>
<path d="M 22.5,8 Q 28.5,10.5 26,15" fill="none" stroke="#66BB6A" stroke-width="2.0" stroke-linecap="round"/>
<line x1="11" y1="26" x2="17" y2="26" stroke="#D4A230" stroke-width="1.5" stroke-dasharray="1.5 1.2" stroke-linecap="round"/>
<polyline points="15.5,24 17.5,26 15.5,28" fill="none" stroke="#D4A230" stroke-width="1.6" stroke-linecap="round" stroke-linejoin="round"/>
<circle cx="18" cy="20" r="1.6" fill="#D4A230" filter="url(#g_gn)"/>
<!-- Mystical: ethereal aura rings -->
<circle cx="16" cy="16" r="15.5" fill="url(#m_ring)" opacity="1.0"/>
<circle cx="16" cy="16" r="15.2" fill="none" stroke="#7744DD" stroke-width="0.5"
  stroke-dasharray="3 3" opacity="0.28" filter="url(#m_glow)"/>
<!-- Mystical: ethereal sparkle particles -->
<g filter="url(#m_spark)">
  <circle cx="4.0"  cy="4.0"  r="0.70" fill="#B09AFF" opacity="0.60"/>
  <circle cx="28.0" cy="4.5"  r="0.55" fill="#80CCFF" opacity="0.50"/>
  <circle cx="28.5" cy="28.0" r="0.65" fill="#CC88FF" opacity="0.55"/>
  <circle cx="4.5"  cy="28.0" r="0.50" fill="#99DDFF" opacity="0.45"/>
  <circle cx="16.0" cy="2.0"  r="0.45" fill="#FFD0FF" opacity="0.35"/>
</g>
</svg>
