<svg xmlns="http://www.w3.org/2000/svg" viewBox="0 0 32 32">
<defs>
  <radialGradient id="rg_sl" cx="50%" cy="50%" r="50%">
    <stop offset="0%" stop-color="#0F2200"/><stop offset="100%" stop-color="#060D00"/>
  </radialGradient>
  <filter id="g_qc" x="-40%" y="-40%" width="180%" height="180%">
    <feGaussianBlur stdDeviation="2.02" result="b"/>
    <feMerge><feMergeNode in="b"/><feMergeNode in="SourceGraphic"/></feMerge>
  </filter>
  <!-- Mystical: transparent nebula backdrop -->
  <radialGradient id="m_nbg" cx="50%" cy="50%" r="50%">
    <stop offset="0%"   stop-color="#0C0720" stop-opacity="0.88"/>
    <stop offset="60%"  stop-color="#08041A" stop-opacity="0.72"/>
    <stop offset="88%"  stop-color="#05030E" stop-opacity="0.38"/>
    <stop offset="100%" stop-color="#020108" stop-opacity="0.00"/>
  </radialGradient>
  <!-- Mystical: outer cosmic ring gradient -->
  <radialGradient id="m_ring" cx="50%" cy="50%" r="50%">
    <stop offset="78%"  stop-color="#7744CC" stop-opacity="0.00"/>
    <stop offset="95%"  stop-color="#6633BB" stop-opacity="0.28"/>
    <stop offset="100%" stop-color="#4422AA" stop-opacity="0.08"/>
  </radialGradient>
  <!-- Mystical: ethereal glow filter -->
  <filter id="m_glow" x="-80%" y="-80%" width="260%" height="260%">
    <feGaussianBlur in="SourceGraphic" stdDeviation="2.2" result="blur"/>
    <feMerge><feMergeNode in="blur"/><feMergeNode in="SourceGraphic"/></feMerge>
  </filter>
  <!-- Mystical: sparkle glow filter -->
  <filter id="m_spark" x="-200%" y="-200%" width="500%" height="500%">
    <feGaussianBlur in="SourceGraphic" stdDeviation="1.3" result="blur"/>
    <feMerge><feMergeNode in="blur"/><feMergeNode in="SourceGraphic"/></feMerge>
  </filter>
</defs>
<!-- Mystical nebula backdrop (transparent at edges) -->
<circle cx="16" cy="16" r="16" fill="url(#m_nbg)"/>
<polygon points="16,1.5 18.5,9 25.5,6 22,13 29.5,15.5 22,18 25.5,25.5 18.5,23 16,30 13.5,23 6.5,25.5 10,18 2.5,15.5 10,13 6.5,6 13.5,9" fill="url(#rg_sl)" stroke="#1E4A00" stroke-width="0.75" opacity="0.65"/>
<polygon points="16,3 28,10 28,22 16,29 4,22 4,10" fill="none" stroke="#43A047" stroke-width="1.9" filter="url(#g_qc)"/>
<polygon points="16,7 24.5,12 24.5,20.5 16,25 7.5,20.5 7.5,12" fill="none" stroke="#1B5E20" stroke-width="0.65" opacity="0.5"/>
<polyline points="9,16 14,22.5 24,9.5" fill="none" stroke="#D4A230" stroke-width="3.2" stroke-linecap="round" stroke-linejoin="round" filter="url(#g_qc)"/>
<!-- Mystical: ethereal aura rings -->
<circle cx="16" cy="16" r="15.5" fill="url(#m_ring)" opacity="1.0"/>
<circle cx="16" cy="16" r="15.2" fill="none" stroke="#7744DD" stroke-width="0.5"
  stroke-dasharray="3 3" opacity="0.28" filter="url(#m_glow)"/>
<!-- Mystical: ethereal sparkle particles -->
<g filter="url(#m_spark)">
  <circle cx="4.0"  cy="4.0"  r="0.70" fill="#B09AFF" opacity="0.60"/>
  <circle cx="28.0" cy="4.5"  r="0.55" fill="#80CCFF" opacity="0.50"/>
  <circle cx="28.5" cy="28.0" r="0.65" fill="#CC88FF" opacity="0.55"/>
  <circle cx="4.5"  cy="28.0" r="0.50" fill="#99DDFF" opacity="0.45"/>
  <circle cx="16.0" cy="2.0"  r="0.45" fill="#FFD0FF" opacity="0.35"/>
</g>
</svg>
