<svg xmlns="http://www.w3.org/2000/svg" viewBox="0 0 32 32">
<defs>
  <linearGradient id="lg_wave" x1="0%" y1="0%" x2="100%" y2="0%">
    <stop offset="0%" stop-color="#006A78"/><stop offset="100%" stop-color="#00E5FF"/>
  </linearGradient>
  <filter id="g_c" x="-40%" y="-40%" width="180%" height="180%">
    <feGaussianBlur stdDeviation="1.40" result="b"/>
    <feMerge><feMergeNode in="b"/><feMergeNode in="SourceGraphic"/></feMerge>
  </filter>
  <!-- Mystical: transparent nebula backdrop -->
  <radialGradient id="m_nbg" cx="50%" cy="50%" r="50%">
    <stop offset="0%"   stop-color="#0C0720" stop-opacity="0.88"/>
    <stop offset="60%"  stop-color="#08041A" stop-opacity="0.72"/>
    <stop offset="88%"  stop-color="#05030E" stop-opacity="0.38"/>
    <stop offset="100%" stop-color="#020108" stop-opacity="0.00"/>
  </radialGradient>
  <!-- Mystical: outer cosmic ring gradient -->
  <radialGradient id="m_ring" cx="50%" cy="50%" r="50%">
    <stop offset="78%"  stop-color="#7744CC" stop-opacity="0.00"/>
    <stop offset="95%"  stop-color="#6633BB" stop-opacity="0.28"/>
    <stop offset="100%" stop-color="#4422AA" stop-opacity="0.08"/>
  </radialGradient>
  <!-- Mystical: ethereal glow filter -->
  <filter id="m_glow" x="-80%" y="-80%" width="260%" height="260%">
    <feGaussianBlur in="SourceGraphic" stdDeviation="2.2" result="blur"/>
    <feMerge><feMergeNode in="blur"/><feMergeNode in="SourceGraphic"/></feMerge>
  </filter>
  <!-- Mystical: sparkle glow filter -->
  <filter id="m_spark" x="-200%" y="-200%" width="500%" height="500%">
    <feGaussianBlur in="SourceGraphic" stdDeviation="1.3" result="blur"/>
    <feMerge><feMergeNode in="blur"/><feMergeNode in="SourceGraphic"/></feMerge>
  </filter>
</defs>
<!-- Mystical nebula backdrop (transparent at edges) -->
<circle cx="16" cy="16" r="16" fill="url(#m_nbg)"/>
<circle cx="6.5" cy="16" r="5.8" fill="#050E12" stroke="#00697A" stroke-width="1.6"/>
<circle cx="6.5" cy="16" r="3.8" fill="none" stroke="#0097A7" stroke-width="0.8" opacity="0.65"/>
<circle cx="6.5" cy="16" r="1.8" fill="none" stroke="#00BCD4" stroke-width="0.9"/>
<circle cx="6.5" cy="16" r="0.7" fill="#00BCD4" filter="url(#g_c)"/>
<line x1="12.5" y1="16" x2="19.5" y2="16" stroke="#D4A230" stroke-width="1.3" stroke-dasharray="2 1.6" stroke-linecap="round"/>
<circle cx="12.5" cy="16" r="1.4" fill="#071418" stroke="#00BCD4" stroke-width="1.0"/>
<circle cx="19.5" cy="16" r="1.4" fill="#071418" stroke="#00BCD4" stroke-width="1.0"/>
<polyline points="17.8,13.8 20.5,16 17.8,18.2" fill="none" stroke="#D4A230" stroke-width="1.6" stroke-linecap="round" stroke-linejoin="round"/>
<path d="M 21.5,16 C 23,16 24.2,11.5 25.8,11.5 C 27.4,11.5 27.4,20.5 29,20.5 C 30.2,20.5 30.5,16 31.5,16" fill="none" stroke="url(#lg_wave)" stroke-width="2.1" stroke-linecap="round" filter="url(#g_c)"/>
<!-- Mystical: ethereal aura rings -->
<circle cx="16" cy="16" r="15.5" fill="url(#m_ring)" opacity="1.0"/>
<circle cx="16" cy="16" r="15.2" fill="none" stroke="#7744DD" stroke-width="0.5"
  stroke-dasharray="3 3" opacity="0.28" filter="url(#m_glow)"/>
<!-- Mystical: ethereal sparkle particles -->
<g filter="url(#m_spark)">
  <circle cx="4.0"  cy="4.0"  r="0.70" fill="#B09AFF" opacity="0.60"/>
  <circle cx="28.0" cy="4.5"  r="0.55" fill="#80CCFF" opacity="0.50"/>
  <circle cx="28.5" cy="28.0" r="0.65" fill="#CC88FF" opacity="0.55"/>
  <circle cx="4.5"  cy="28.0" r="0.50" fill="#99DDFF" opacity="0.45"/>
  <circle cx="16.0" cy="2.0"  r="0.45" fill="#FFD0FF" opacity="0.35"/>
</g>
</svg>
