<svg xmlns="http://www.w3.org/2000/svg" viewBox="0 0 32 32">
<defs>
  <linearGradient id="lg_gbar" x1="0%" y1="0%" x2="0%" y2="100%">
    <stop offset="0%" stop-color="#FFD060"/><stop offset="100%" stop-color="#6A3A00"/>
  </linearGradient>
  <filter id="g_sp" x="-50%" y="-50%" width="200%" height="200%">
    <feGaussianBlur stdDeviation="1.71" result="b"/>
    <feMerge><feMergeNode in="b"/><feMergeNode in="SourceGraphic"/></feMerge>
  </filter>
  <!-- Mystical: transparent nebula backdrop -->
  <radialGradient id="m_nbg" cx="50%" cy="50%" r="50%">
    <stop offset="0%"   stop-color="#0C0720" stop-opacity="0.88"/>
    <stop offset="60%"  stop-color="#08041A" stop-opacity="0.72"/>
    <stop offset="88%"  stop-color="#05030E" stop-opacity="0.38"/>
    <stop offset="100%" stop-color="#020108" stop-opacity="0.00"/>
  </radialGradient>
  <!-- Mystical: outer cosmic ring gradient -->
  <radialGradient id="m_ring" cx="50%" cy="50%" r="50%">
    <stop offset="78%"  stop-color="#7744CC" stop-opacity="0.00"/>
    <stop offset="95%"  stop-color="#6633BB" stop-opacity="0.28"/>
    <stop offset="100%" stop-color="#4422AA" stop-opacity="0.08"/>
  </radialGradient>
  <!-- Mystical: ethereal glow filter -->
  <filter id="m_glow" x="-80%" y="-80%" width="260%" height="260%">
    <feGaussianBlur in="SourceGraphic" stdDeviation="2.2" result="blur"/>
    <feMerge><feMergeNode in="blur"/><feMergeNode in="SourceGraphic"/></feMerge>
  </filter>
  <!-- Mystical: sparkle glow filter -->
  <filter id="m_spark" x="-200%" y="-200%" width="500%" height="500%">
    <feGaussianBlur in="SourceGraphic" stdDeviation="1.3" result="blur"/>
    <feMerge><feMergeNode in="blur"/><feMergeNode in="SourceGraphic"/></feMerge>
  </filter>
</defs>
<!-- Mystical nebula backdrop (transparent at edges) -->
<circle cx="16" cy="16" r="16" fill="url(#m_nbg)"/>
<line x1="0.5" y1="30" x2="31.5" y2="30" stroke="#2D1560" stroke-width="0.9"/>
<rect x="1"   y="23" width="3.5" height="7"  rx="0.8" fill="#1A0A3A" stroke="#6A3E9A" stroke-width="0.9"/>
<rect x="6"   y="18" width="3.5" height="12" rx="0.8" fill="#1E0944" stroke="#7E57C2" stroke-width="0.9"/>
<rect x="11"  y="13" width="3.5" height="17" rx="0.8" fill="#24094E" stroke="#9575CD" stroke-width="0.9"/>
<rect x="16.5" y="6" width="4.5" height="24" rx="0.9" fill="url(#lg_gbar)" stroke="#FFD060" stroke-width="1.7" filter="url(#g_sp)"/>
<line x1="18.75" y1="8" x2="18.75" y2="28" stroke="#FFD060" stroke-width="0.5" opacity="0.4"/>
<line x1="17.5" y1="6"  x2="15.5" y2="2.5" stroke="#D4A230" stroke-width="1.6" stroke-linecap="round" filter="url(#g_sp)"/>
<line x1="20.5" y1="5.5" x2="22.5" y2="2"  stroke="#D4A230" stroke-width="1.3" stroke-linecap="round" filter="url(#g_sp)"/>
<circle cx="15.5" cy="2.5" r="1.1" fill="#FFD060" filter="url(#g_sp)"/>
<circle cx="22.5" cy="2"   r="0.9" fill="#FFD060" filter="url(#g_sp)"/>
<rect x="23" y="19" width="3.5" height="11" rx="0.8" fill="#1A0A3A" stroke="#6A3E9A" stroke-width="0.9"/>
<rect x="28" y="23" width="3.5" height="7"  rx="0.8" fill="#140730" stroke="#5E35B1" stroke-width="0.9" opacity="0.7"/>
<!-- Mystical: ethereal aura rings -->
<circle cx="16" cy="16" r="15.5" fill="url(#m_ring)" opacity="1.0"/>
<circle cx="16" cy="16" r="15.2" fill="none" stroke="#7744DD" stroke-width="0.5"
  stroke-dasharray="3 3" opacity="0.28" filter="url(#m_glow)"/>
<!-- Mystical: ethereal sparkle particles -->
<g filter="url(#m_spark)">
  <circle cx="4.0"  cy="4.0"  r="0.70" fill="#B09AFF" opacity="0.60"/>
  <circle cx="28.0" cy="4.5"  r="0.55" fill="#80CCFF" opacity="0.50"/>
  <circle cx="28.5" cy="28.0" r="0.65" fill="#CC88FF" opacity="0.55"/>
  <circle cx="4.5"  cy="28.0" r="0.50" fill="#99DDFF" opacity="0.45"/>
  <circle cx="16.0" cy="2.0"  r="0.45" fill="#FFD0FF" opacity="0.35"/>
</g>
</svg>
