<svg xmlns="http://www.w3.org/2000/svg" viewBox="0 0 32 32">
<defs>
  <filter id="g_g" x="-40%" y="-40%" width="180%" height="180%">
    <feGaussianBlur stdDeviation="1.24" result="b"/>
    <feMerge><feMergeNode in="b"/><feMergeNode in="SourceGraphic"/></feMerge>
  </filter>
  <!-- Mystical: transparent nebula backdrop -->
  <radialGradient id="m_nbg" cx="50%" cy="50%" r="50%">
    <stop offset="0%"   stop-color="#0C0720" stop-opacity="0.88"/>
    <stop offset="60%"  stop-color="#08041A" stop-opacity="0.72"/>
    <stop offset="88%"  stop-color="#05030E" stop-opacity="0.38"/>
    <stop offset="100%" stop-color="#020108" stop-opacity="0.00"/>
  </radialGradient>
  <!-- Mystical: outer cosmic ring gradient -->
  <radialGradient id="m_ring" cx="50%" cy="50%" r="50%">
    <stop offset="78%"  stop-color="#7744CC" stop-opacity="0.00"/>
    <stop offset="95%"  stop-color="#6633BB" stop-opacity="0.28"/>
    <stop offset="100%" stop-color="#4422AA" stop-opacity="0.08"/>
  </radialGradient>
  <!-- Mystical: ethereal glow filter -->
  <filter id="m_glow" x="-80%" y="-80%" width="260%" height="260%">
    <feGaussianBlur in="SourceGraphic" stdDeviation="2.2" result="blur"/>
    <feMerge><feMergeNode in="blur"/><feMergeNode in="SourceGraphic"/></feMerge>
  </filter>
  <!-- Mystical: sparkle glow filter -->
  <filter id="m_spark" x="-200%" y="-200%" width="500%" height="500%">
    <feGaussianBlur in="SourceGraphic" stdDeviation="1.3" result="blur"/>
    <feMerge><feMergeNode in="blur"/><feMergeNode in="SourceGraphic"/></feMerge>
  </filter>
</defs>
<!-- Mystical nebula backdrop (transparent at edges) -->
<circle cx="16" cy="16" r="16" fill="url(#m_nbg)"/>
<circle cx="16" cy="14" r="10.5" fill="none" stroke="#00796B" stroke-width="1.6"/>
<circle cx="16" cy="14" r="7"    fill="none" stroke="#00897B" stroke-width="0.7" opacity="0.55"/>
<line x1="16" y1="3.5"  x2="16" y2="6.5"   stroke="#00BFA5" stroke-width="1.3" stroke-linecap="round"/>
<line x1="16" y1="21.5" x2="16" y2="24.5"  stroke="#00BFA5" stroke-width="1.3" stroke-linecap="round"/>
<line x1="5.5" y1="14"  x2="8.5" y2="14"   stroke="#00BFA5" stroke-width="1.3" stroke-linecap="round"/>
<line x1="23.5" y1="14" x2="26.5" y2="14"  stroke="#00BFA5" stroke-width="1.3" stroke-linecap="round"/>
<polygon points="16,6 14.3,14 17.7,14" fill="#D4A230" filter="url(#g_g)"/>
<polygon points="16,22 14.3,14 17.7,14" fill="#00BFA5"/>
<circle cx="16" cy="14" r="2.3" fill="#051412" stroke="#00BFA5" stroke-width="1.3"/>
<path d="M 2,26 Q 6.5,22 11,26 Q 15.5,30 20,26 Q 24.5,22 29,26" fill="none" stroke="#00897B" stroke-width="2.0" stroke-linecap="round" filter="url(#g_g)"/>
<path d="M 2,29 Q 6.5,25 11,29 Q 15.5,33 20,29 Q 24.5,25 29,29" fill="none" stroke="#26C6DA" stroke-width="1.0" stroke-linecap="round" opacity="0.55"/>
<!-- Mystical: ethereal aura rings -->
<circle cx="16" cy="16" r="15.5" fill="url(#m_ring)" opacity="1.0"/>
<circle cx="16" cy="16" r="15.2" fill="none" stroke="#7744DD" stroke-width="0.5"
  stroke-dasharray="3 3" opacity="0.28" filter="url(#m_glow)"/>
<!-- Mystical: ethereal sparkle particles -->
<g filter="url(#m_spark)">
  <circle cx="4.0"  cy="4.0"  r="0.70" fill="#B09AFF" opacity="0.60"/>
  <circle cx="28.0" cy="4.5"  r="0.55" fill="#80CCFF" opacity="0.50"/>
  <circle cx="28.5" cy="28.0" r="0.65" fill="#CC88FF" opacity="0.55"/>
  <circle cx="4.5"  cy="28.0" r="0.50" fill="#99DDFF" opacity="0.45"/>
  <circle cx="16.0" cy="2.0"  r="0.45" fill="#FFD0FF" opacity="0.35"/>
</g>
</svg>
