<svg xmlns="http://www.w3.org/2000/svg" viewBox="0 0 32 32">
<defs>
  <filter id="gl" x="-30%" y="-30%" width="160%" height="160%">
    <feGaussianBlur stdDeviation="1.2" result="b"/>
    <feMerge><feMergeNode in="b"/><feMergeNode in="SourceGraphic"/></feMerge>
  </filter>
  <radialGradient id="m_nbg" cx="50%" cy="50%" r="50%">
    <stop offset="0%"   stop-color="#0C0720" stop-opacity="0.88"/>
    <stop offset="60%"  stop-color="#08041A" stop-opacity="0.72"/>
    <stop offset="88%"  stop-color="#05030E" stop-opacity="0.38"/>
    <stop offset="100%" stop-color="#020108" stop-opacity="0.00"/>
  </radialGradient>
  <radialGradient id="m_ring" cx="50%" cy="50%" r="50%">
    <stop offset="78%"  stop-color="#7744CC" stop-opacity="0.00"/>
    <stop offset="95%"  stop-color="#6633BB" stop-opacity="0.28"/>
    <stop offset="100%" stop-color="#4422AA" stop-opacity="0.08"/>
  </radialGradient>
  <filter id="m_glow" x="-80%" y="-80%" width="260%" height="260%">
    <feGaussianBlur in="SourceGraphic" stdDeviation="2.2" result="blur"/>
    <feMerge><feMergeNode in="blur"/><feMergeNode in="SourceGraphic"/></feMerge>
  </filter>
  <filter id="m_spark" x="-200%" y="-200%" width="500%" height="500%">
    <feGaussianBlur in="SourceGraphic" stdDeviation="1.3" result="blur"/>
    <feMerge><feMergeNode in="blur"/><feMergeNode in="SourceGraphic"/></feMerge>
  </filter>
</defs>
<circle cx="16" cy="16" r="16" fill="url(#m_nbg)"/>
<!-- Spectrum bars in rainbow gradient (7 octave bins) -->
<!-- Bar 1 – Red -->
<rect x="4"  y="20" width="3" height="9"  rx="0.7" fill="#F44336" fill-opacity="0.90" filter="url(#gl)"/>
<!-- Bar 2 – Orange -->
<rect x="8"  y="15" width="3" height="14" rx="0.7" fill="#FF9800" fill-opacity="0.90"/>
<!-- Bar 3 – Yellow -->
<rect x="12" y="11" width="3" height="18" rx="0.7" fill="#FFEB3B" fill-opacity="0.88" filter="url(#gl)"/>
<!-- Bar 4 – Green -->
<rect x="16" y="8"  width="3" height="21" rx="0.7" fill="#4CAF50" fill-opacity="0.90"/>
<!-- Bar 5 – Cyan -->
<rect x="20" y="12" width="3" height="17" rx="0.7" fill="#00BCD4" fill-opacity="0.88"/>
<!-- Bar 6 – Blue -->
<rect x="24" y="17" width="3" height="12" rx="0.7" fill="#3F51B5" fill-opacity="0.85"/>
<!-- Baseline -->
<line x1="3" y1="29" x2="29" y2="29" stroke="#546E7A" stroke-width="0.9" opacity="0.50"/>
<!-- Bar top glow highlights -->
<circle cx="5.5"  cy="20" r="1.0" fill="#FF8A80" opacity="0.70"/>
<circle cx="9.5"  cy="15" r="1.0" fill="#FFAB40" opacity="0.65"/>
<circle cx="13.5" cy="11" r="1.0" fill="#FFFF8D" opacity="0.70" filter="url(#gl)"/>
<circle cx="17.5" cy="8"  r="1.0" fill="#B9F6CA" opacity="0.75" filter="url(#gl)"/>
<circle cx="21.5" cy="12" r="1.0" fill="#84FFFF" opacity="0.65"/>
<circle cx="25.5" cy="17" r="1.0" fill="#82B1FF" opacity="0.60"/>
<!-- Mystical: ethereal aura rings -->
<circle cx="16" cy="16" r="15.5" fill="url(#m_ring)" opacity="1.0"/>
<circle cx="16" cy="16" r="15.2" fill="none" stroke="#7744DD" stroke-width="0.5"
  stroke-dasharray="3 3" opacity="0.28" filter="url(#m_glow)"/>
<!-- Mystical: ethereal sparkle particles -->
<g filter="url(#m_spark)">
  <circle cx="4.0"  cy="4.0"  r="0.70" fill="#B09AFF" opacity="0.60"/>
  <circle cx="28.0" cy="4.5"  r="0.55" fill="#80CCFF" opacity="0.50"/>
  <circle cx="28.5" cy="28.0" r="0.65" fill="#CC88FF" opacity="0.55"/>
  <circle cx="4.5"  cy="28.0" r="0.50" fill="#99DDFF" opacity="0.45"/>
  <circle cx="16.0" cy="2.0"  r="0.45" fill="#FFD0FF" opacity="0.35"/>
</g>
</svg>
