<svg xmlns="http://www.w3.org/2000/svg" viewBox="0 0 32 32">
<defs>
  <linearGradient id="lg" x1="0%" y1="0%" x2="100%" y2="100%">
    <stop offset="0%" stop-color="#00ACC1"/><stop offset="100%" stop-color="#E0F7FA"/>
  </linearGradient>
  <linearGradient id="lg2" x1="0%" y1="0%" x2="0%" y2="100%">
    <stop offset="0%" stop-color="#80DEEA" stop-opacity="0.5"/><stop offset="100%" stop-color="#006064" stop-opacity="0.2"/>
  </linearGradient>
  <filter id="gl" x="-50%" y="-50%" width="200%" height="200%">
    <feGaussianBlur stdDeviation="1.6" result="b"/>
    <feMerge><feMergeNode in="b"/><feMergeNode in="SourceGraphic"/></feMerge>
  </filter>
  <radialGradient id="m_nbg" cx="50%" cy="50%" r="50%">
    <stop offset="0%"   stop-color="#0C0720" stop-opacity="0.88"/>
    <stop offset="60%"  stop-color="#08041A" stop-opacity="0.72"/>
    <stop offset="88%"  stop-color="#05030E" stop-opacity="0.38"/>
    <stop offset="100%" stop-color="#020108" stop-opacity="0.00"/>
  </radialGradient>
  <radialGradient id="m_ring" cx="50%" cy="50%" r="50%">
    <stop offset="78%"  stop-color="#7744CC" stop-opacity="0.00"/>
    <stop offset="95%"  stop-color="#6633BB" stop-opacity="0.28"/>
    <stop offset="100%" stop-color="#4422AA" stop-opacity="0.08"/>
  </radialGradient>
  <filter id="m_glow" x="-80%" y="-80%" width="260%" height="260%">
    <feGaussianBlur in="SourceGraphic" stdDeviation="2.2" result="blur"/>
    <feMerge><feMergeNode in="blur"/><feMergeNode in="SourceGraphic"/></feMerge>
  </filter>
  <filter id="m_spark" x="-200%" y="-200%" width="500%" height="500%">
    <feGaussianBlur in="SourceGraphic" stdDeviation="1.3" result="blur"/>
    <feMerge><feMergeNode in="blur"/><feMergeNode in="SourceGraphic"/></feMerge>
  </filter>
</defs>
<circle cx="16" cy="16" r="16" fill="url(#m_nbg)"/>
<!-- Diamond body fill -->
<polygon points="16,5 24,16 16,27 8,16" fill="url(#lg2)" filter="url(#gl)"/>
<!-- Diamond outline -->
<polygon points="16,5 24,16 16,27 8,16" fill="none" stroke="url(#lg)" stroke-width="2.2" stroke-linejoin="round" filter="url(#gl)"/>
<!-- Facet lines (upper) -->
<line x1="8"  y1="16" x2="16" y2="5"  stroke="#B2EBF2" stroke-width="0.9" opacity="0.65"/>
<line x1="24" y1="16" x2="16" y2="5"  stroke="#80DEEA" stroke-width="0.9" opacity="0.65"/>
<line x1="16" y1="5"  x2="16" y2="16" stroke="#E0F7FA" stroke-width="0.8" opacity="0.50"/>
<!-- Facet lines (lower) -->
<line x1="8"  y1="16" x2="16" y2="27" stroke="#4DD0E1" stroke-width="0.9" opacity="0.50"/>
<line x1="24" y1="16" x2="16" y2="27" stroke="#4DD0E1" stroke-width="0.9" opacity="0.50"/>
<!-- Bright highlight -->
<circle cx="14" cy="12" r="1.8" fill="#FFFFFF" fill-opacity="0.35"/>
<!-- Mystical: ethereal aura rings -->
<circle cx="16" cy="16" r="15.5" fill="url(#m_ring)" opacity="1.0"/>
<circle cx="16" cy="16" r="15.2" fill="none" stroke="#7744DD" stroke-width="0.5"
  stroke-dasharray="3 3" opacity="0.28" filter="url(#m_glow)"/>
<!-- Mystical: ethereal sparkle particles -->
<g filter="url(#m_spark)">
  <circle cx="4.0"  cy="4.0"  r="0.70" fill="#B09AFF" opacity="0.60"/>
  <circle cx="28.0" cy="4.5"  r="0.55" fill="#80CCFF" opacity="0.50"/>
  <circle cx="28.5" cy="28.0" r="0.65" fill="#CC88FF" opacity="0.55"/>
  <circle cx="4.5"  cy="28.0" r="0.50" fill="#99DDFF" opacity="0.45"/>
  <circle cx="16.0" cy="2.0"  r="0.45" fill="#FFD0FF" opacity="0.35"/>
</g>
</svg>
