<svg xmlns="http://www.w3.org/2000/svg" viewBox="0 0 32 32">
<defs>
  <linearGradient id="lg" x1="0%" y1="0%" x2="100%" y2="100%">
    <stop offset="0%" stop-color="#C2185B"/><stop offset="100%" stop-color="#FF80AB"/>
  </linearGradient>
  <filter id="gl" x="-40%" y="-40%" width="180%" height="180%">
    <feGaussianBlur stdDeviation="1.4" result="b"/>
    <feMerge><feMergeNode in="b"/><feMergeNode in="SourceGraphic"/></feMerge>
  </filter>
  <radialGradient id="m_nbg" cx="50%" cy="50%" r="50%">
    <stop offset="0%"   stop-color="#0C0720" stop-opacity="0.88"/>
    <stop offset="60%"  stop-color="#08041A" stop-opacity="0.72"/>
    <stop offset="88%"  stop-color="#05030E" stop-opacity="0.38"/>
    <stop offset="100%" stop-color="#020108" stop-opacity="0.00"/>
  </radialGradient>
  <radialGradient id="m_ring" cx="50%" cy="50%" r="50%">
    <stop offset="78%"  stop-color="#7744CC" stop-opacity="0.00"/>
    <stop offset="95%"  stop-color="#6633BB" stop-opacity="0.28"/>
    <stop offset="100%" stop-color="#4422AA" stop-opacity="0.08"/>
  </radialGradient>
  <filter id="m_glow" x="-80%" y="-80%" width="260%" height="260%">
    <feGaussianBlur in="SourceGraphic" stdDeviation="2.2" result="blur"/>
    <feMerge><feMergeNode in="blur"/><feMergeNode in="SourceGraphic"/></feMerge>
  </filter>
  <filter id="m_spark" x="-200%" y="-200%" width="500%" height="500%">
    <feGaussianBlur in="SourceGraphic" stdDeviation="1.3" result="blur"/>
    <feMerge><feMergeNode in="blur"/><feMergeNode in="SourceGraphic"/></feMerge>
  </filter>
</defs>
<circle cx="16" cy="16" r="16" fill="url(#m_nbg)"/>
<!-- Shared stem (vertical) -->
<line x1="20" y1="9" x2="20" y2="22" stroke="url(#lg)" stroke-width="2.0" stroke-linecap="round" filter="url(#gl)"/>
<!-- Right note head (lower) -->
<ellipse cx="18" cy="22.5" rx="3.2" ry="2.3" transform="rotate(-15 18 22.5)" fill="#E91E63" fill-opacity="0.90" filter="url(#gl)"/>
<!-- Left note stem connector -->
<line x1="20" y1="13" x2="13" y2="15.5" stroke="url(#lg)" stroke-width="2.0" stroke-linecap="round"/>
<!-- Left note head -->
<ellipse cx="11" cy="18" rx="3.2" ry="2.3" transform="rotate(-15 11 18)" fill="#FF80AB" fill-opacity="0.85" filter="url(#gl)"/>
<!-- Flag on right stem -->
<path d="M 20,9 C 23,10 24,12 22,14" fill="none" stroke="#FF4081" stroke-width="1.7" stroke-linecap="round"/>
<!-- Flag on left stem -->
<path d="M 13,15.5 C 16,16.5 17,18 15,20" fill="none" stroke="#FF80AB" stroke-width="1.5" stroke-linecap="round"/>
<!-- Mystical: ethereal aura rings -->
<circle cx="16" cy="16" r="15.5" fill="url(#m_ring)" opacity="1.0"/>
<circle cx="16" cy="16" r="15.2" fill="none" stroke="#7744DD" stroke-width="0.5"
  stroke-dasharray="3 3" opacity="0.28" filter="url(#m_glow)"/>
<!-- Mystical: ethereal sparkle particles -->
<g filter="url(#m_spark)">
  <circle cx="4.0"  cy="4.0"  r="0.70" fill="#B09AFF" opacity="0.60"/>
  <circle cx="28.0" cy="4.5"  r="0.55" fill="#80CCFF" opacity="0.50"/>
  <circle cx="28.5" cy="28.0" r="0.65" fill="#CC88FF" opacity="0.55"/>
  <circle cx="4.5"  cy="28.0" r="0.50" fill="#99DDFF" opacity="0.45"/>
  <circle cx="16.0" cy="2.0"  r="0.45" fill="#FFD0FF" opacity="0.35"/>
</g>
</svg>
