<svg xmlns="http://www.w3.org/2000/svg" viewBox="0 0 32 32">
<defs>
  <linearGradient id="lg" x1="0%" y1="0%" x2="0%" y2="100%">
    <stop offset="0%" stop-color="#FF8F00"/><stop offset="100%" stop-color="#E64A19"/>
  </linearGradient>
  <linearGradient id="lg2" x1="0%" y1="0%" x2="0%" y2="100%">
    <stop offset="0%" stop-color="#FFEB3B"/><stop offset="100%" stop-color="#FF6D00"/>
  </linearGradient>
  <filter id="gl" x="-40%" y="-40%" width="180%" height="180%">
    <feGaussianBlur stdDeviation="1.4" result="b"/>
    <feMerge><feMergeNode in="b"/><feMergeNode in="SourceGraphic"/></feMerge>
  </filter>
  <radialGradient id="m_nbg" cx="50%" cy="50%" r="50%">
    <stop offset="0%"   stop-color="#0C0720" stop-opacity="0.88"/>
    <stop offset="60%"  stop-color="#08041A" stop-opacity="0.72"/>
    <stop offset="88%"  stop-color="#05030E" stop-opacity="0.38"/>
    <stop offset="100%" stop-color="#020108" stop-opacity="0.00"/>
  </radialGradient>
  <radialGradient id="m_ring" cx="50%" cy="50%" r="50%">
    <stop offset="78%"  stop-color="#7744CC" stop-opacity="0.00"/>
    <stop offset="95%"  stop-color="#6633BB" stop-opacity="0.28"/>
    <stop offset="100%" stop-color="#4422AA" stop-opacity="0.08"/>
  </radialGradient>
  <filter id="m_glow" x="-80%" y="-80%" width="260%" height="260%">
    <feGaussianBlur in="SourceGraphic" stdDeviation="2.2" result="blur"/>
    <feMerge><feMergeNode in="blur"/><feMergeNode in="SourceGraphic"/></feMerge>
  </filter>
  <filter id="m_spark" x="-200%" y="-200%" width="500%" height="500%">
    <feGaussianBlur in="SourceGraphic" stdDeviation="1.3" result="blur"/>
    <feMerge><feMergeNode in="blur"/><feMergeNode in="SourceGraphic"/></feMerge>
  </filter>
</defs>
<circle cx="16" cy="16" r="16" fill="url(#m_nbg)"/>
<!-- Rocket body -->
<path d="M 16,4 C 13,4 12,7 12,11 L 12,22 L 16,24 L 20,22 L 20,11 C 20,7 19,4 16,4 Z" fill="#1A0800" stroke="url(#lg)" stroke-width="1.8" filter="url(#gl)"/>
<!-- Nose cone fill -->
<path d="M 16,4 C 14,4 12,7 12,10 L 20,10 C 20,7 18,4 16,4 Z" fill="#FF6D00" fill-opacity="0.35"/>
<!-- Window porthole -->
<circle cx="16" cy="14" r="2.2" fill="none" stroke="#FFB300" stroke-width="1.2"/>
<circle cx="16" cy="14" r="1.2" fill="#FFF9C4" fill-opacity="0.45"/>
<!-- Left fin -->
<path d="M 12,19 L 8,25 L 12,23 Z" fill="#FF6D00" fill-opacity="0.80" stroke="#FF8F00" stroke-width="0.7"/>
<!-- Right fin -->
<path d="M 20,19 L 24,25 L 20,23 Z" fill="#FF6D00" fill-opacity="0.80" stroke="#FF8F00" stroke-width="0.7"/>
<!-- Flame -->
<path d="M 13,23 C 13,26 14.5,29 16,29.5 C 17.5,29 19,26 19,23" fill="url(#lg2)" fill-opacity="0.90" filter="url(#gl)"/>
<!-- Flame inner -->
<path d="M 14.5,23 C 14.5,25.5 15.5,27.5 16,28 C 16.5,27.5 17.5,25.5 17.5,23" fill="#FFEB3B" fill-opacity="0.75"/>
<!-- Mystical: ethereal aura rings -->
<circle cx="16" cy="16" r="15.5" fill="url(#m_ring)" opacity="1.0"/>
<circle cx="16" cy="16" r="15.2" fill="none" stroke="#7744DD" stroke-width="0.5"
  stroke-dasharray="3 3" opacity="0.28" filter="url(#m_glow)"/>
<!-- Mystical: ethereal sparkle particles -->
<g filter="url(#m_spark)">
  <circle cx="4.0"  cy="4.0"  r="0.70" fill="#B09AFF" opacity="0.60"/>
  <circle cx="28.0" cy="4.5"  r="0.55" fill="#80CCFF" opacity="0.50"/>
  <circle cx="28.5" cy="28.0" r="0.65" fill="#CC88FF" opacity="0.55"/>
  <circle cx="4.5"  cy="28.0" r="0.50" fill="#99DDFF" opacity="0.45"/>
  <circle cx="16.0" cy="2.0"  r="0.45" fill="#FFD0FF" opacity="0.35"/>
</g>
</svg>
