<svg xmlns="http://www.w3.org/2000/svg" viewBox="0 0 32 32">
<defs>
  <linearGradient id="lg" x1="0%" y1="0%" x2="100%" y2="100%">
    <stop offset="0%" stop-color="#4527A0"/><stop offset="100%" stop-color="#EA80FC"/>
  </linearGradient>
  <filter id="gl" x="-40%" y="-40%" width="180%" height="180%">
    <feGaussianBlur stdDeviation="1.5" result="b"/>
    <feMerge><feMergeNode in="b"/><feMergeNode in="SourceGraphic"/></feMerge>
  </filter>
  <radialGradient id="m_nbg" cx="50%" cy="50%" r="50%">
    <stop offset="0%"   stop-color="#0C0720" stop-opacity="0.88"/>
    <stop offset="60%"  stop-color="#08041A" stop-opacity="0.72"/>
    <stop offset="88%"  stop-color="#05030E" stop-opacity="0.38"/>
    <stop offset="100%" stop-color="#020108" stop-opacity="0.00"/>
  </radialGradient>
  <radialGradient id="m_ring" cx="50%" cy="50%" r="50%">
    <stop offset="78%"  stop-color="#7744CC" stop-opacity="0.00"/>
    <stop offset="95%"  stop-color="#6633BB" stop-opacity="0.28"/>
    <stop offset="100%" stop-color="#4422AA" stop-opacity="0.08"/>
  </radialGradient>
  <filter id="m_glow" x="-80%" y="-80%" width="260%" height="260%">
    <feGaussianBlur in="SourceGraphic" stdDeviation="2.2" result="blur"/>
    <feMerge><feMergeNode in="blur"/><feMergeNode in="SourceGraphic"/></feMerge>
  </filter>
  <filter id="m_spark" x="-200%" y="-200%" width="500%" height="500%">
    <feGaussianBlur in="SourceGraphic" stdDeviation="1.3" result="blur"/>
    <feMerge><feMergeNode in="blur"/><feMergeNode in="SourceGraphic"/></feMerge>
  </filter>
</defs>
<circle cx="16" cy="16" r="16" fill="url(#m_nbg)"/>
<!-- Outer spiral arm (largest) -->
<path d="M 16,16 C 20,16 23,13 23,9 C 23,6 20,4 17,4.5" fill="none" stroke="url(#lg)" stroke-width="2.0" stroke-linecap="round" filter="url(#gl)"/>
<!-- Second spiral arm -->
<path d="M 16,16 C 20,17 22,20 20,23 C 18,26 14,27 11,25" fill="none" stroke="#9C27B0" stroke-width="1.8" stroke-linecap="round" filter="url(#gl)"/>
<!-- Third arm -->
<path d="M 16,16 C 12,15 9,12.5 9,9.5 C 9,7.5 11,6 13,7" fill="none" stroke="#CE93D8" stroke-width="1.5" stroke-linecap="round" opacity="0.80"/>
<!-- Inner orbit -->
<path d="M 9,20 C 8,17.5 9,15 11.5,14" fill="none" stroke="#E1BEE7" stroke-width="1.2" stroke-linecap="round" opacity="0.65"/>
<!-- Center dot -->
<circle cx="16" cy="16" r="2.0" fill="#EA80FC" fill-opacity="0.80" filter="url(#gl)"/>
<circle cx="16" cy="16" r="0.8" fill="#FFFFFF" fill-opacity="0.60"/>
<!-- Mystical: ethereal aura rings -->
<circle cx="16" cy="16" r="15.5" fill="url(#m_ring)" opacity="1.0"/>
<circle cx="16" cy="16" r="15.2" fill="none" stroke="#7744DD" stroke-width="0.5"
  stroke-dasharray="3 3" opacity="0.28" filter="url(#m_glow)"/>
<!-- Mystical: ethereal sparkle particles -->
<g filter="url(#m_spark)">
  <circle cx="4.0"  cy="4.0"  r="0.70" fill="#B09AFF" opacity="0.60"/>
  <circle cx="28.0" cy="4.5"  r="0.55" fill="#80CCFF" opacity="0.50"/>
  <circle cx="28.5" cy="28.0" r="0.65" fill="#CC88FF" opacity="0.55"/>
  <circle cx="4.5"  cy="28.0" r="0.50" fill="#99DDFF" opacity="0.45"/>
  <circle cx="16.0" cy="2.0"  r="0.45" fill="#FFD0FF" opacity="0.35"/>
</g>
</svg>
