<svg xmlns="http://www.w3.org/2000/svg" viewBox="0 0 48 48">
<defs>
<linearGradient id="bar" x1="0" y1="1" x2="0" y2="0">
<stop offset="0" stop-color="#6A0808"/><stop offset="0.6" stop-color="#B01010"/>
<stop offset="1" stop-color="#FF3030"/>
</linearGradient>
<filter id="gl"><feGaussianBlur stdDeviation="1.65" result="b"/>
<feMerge><feMergeNode in="b"/><feMergeNode in="SourceGraphic"/></feMerge></filter>
  <!-- Mystical: transparent nebula backdrop -->
  <radialGradient id="m_nbg" cx="50%" cy="50%" r="50%">
    <stop offset="0%"   stop-color="#0C0720" stop-opacity="0.92"/>
    <stop offset="55%"  stop-color="#08041A" stop-opacity="0.80"/>
    <stop offset="85%"  stop-color="#05030E" stop-opacity="0.45"/>
    <stop offset="100%" stop-color="#020108" stop-opacity="0.00"/>
  </radialGradient>
  <!-- Mystical: outer cosmic ring gradient -->
  <radialGradient id="m_ring" cx="50%" cy="50%" r="50%">
    <stop offset="80%"  stop-color="#7744CC" stop-opacity="0.00"/>
    <stop offset="95%"  stop-color="#6633BB" stop-opacity="0.30"/>
    <stop offset="100%" stop-color="#4422AA" stop-opacity="0.10"/>
  </radialGradient>
  <!-- Mystical: ethereal glow filter -->
  <filter id="m_glow" x="-80%" y="-80%" width="260%" height="260%">
    <feGaussianBlur in="SourceGraphic" stdDeviation="2.8" result="blur"/>
    <feMerge><feMergeNode in="blur"/><feMergeNode in="SourceGraphic"/></feMerge>
  </filter>
  <!-- Mystical: sparkle glow filter -->
  <filter id="m_spark" x="-200%" y="-200%" width="500%" height="500%">
    <feGaussianBlur in="SourceGraphic" stdDeviation="1.6" result="blur"/>
    <feMerge><feMergeNode in="blur"/><feMergeNode in="SourceGraphic"/></feMerge>
  </filter>
</defs>
<!-- Mystical nebula backdrop (transparent at edges) -->
<rect width="48" height="48" rx="6" fill="url(#m_nbg)"/>

<rect x="4"  y="30" width="4" height="12" rx="0.5" fill="url(#bar)"/>
<rect x="10" y="39" width="4" height="3"  rx="0.5" fill="url(#bar)" opacity="0.3"/>
<rect x="16" y="20" width="4" height="22" rx="0.5" fill="url(#bar)"/>
<rect x="22" y="14" width="4" height="12" rx="0.5" fill="url(#bar)" opacity="0.55"/>
<rect x="22" y="28" width="4" height="6"  rx="0.5" fill="url(#bar)" opacity="0.75"/>
<rect x="28" y="24" width="4" height="18" rx="0.5" fill="url(#bar)"/>
<rect x="34" y="41" width="4" height="1"  rx="0.5" fill="url(#bar)" opacity="0.2"/>
<rect x="40" y="28" width="4" height="14" rx="0.5" fill="url(#bar)"/>
<polyline points="6,30 12,39 18,20 24,14 26,28 30,24 36,41 42,28" fill="none" stroke="#FF4040" stroke-width="0.9" opacity="0.55"/>
<line x1="18" y1="6" x2="30" y2="14" stroke="#FF3030" stroke-width="1.6" filter="url(#gl)"/>
<line x1="30" y1="6" x2="18" y2="14" stroke="#FF3030" stroke-width="1.6" filter="url(#gl)"/>
<line x1="4" y1="42.5" x2="44" y2="42.5" stroke="#5A1010" stroke-width="0.8" opacity="0.7"/>
<!-- Mystical: ethereal aura rings -->
<circle cx="24" cy="24" r="22.8" fill="url(#m_ring)" opacity="1.0"/>
<circle cx="24" cy="24" r="22.5" fill="none" stroke="#7744DD" stroke-width="0.55"
  stroke-dasharray="4 3.5" opacity="0.30" filter="url(#m_glow)"/>
<circle cx="24" cy="24" r="20.5" fill="none" stroke="#3355BB" stroke-width="0.30"
  opacity="0.18" stroke-dasharray="2 5"/>
<!-- Mystical: ethereal sparkle particles -->
<g filter="url(#m_spark)">
  <circle cx="6.5"  cy="6.5"  r="0.85" fill="#B09AFF" opacity="0.65"/>
  <circle cx="41.5" cy="7.0"  r="0.70" fill="#80CCFF" opacity="0.55"/>
  <circle cx="42.0" cy="41.5" r="0.80" fill="#CC88FF" opacity="0.60"/>
  <circle cx="7.0"  cy="41.5" r="0.65" fill="#99DDFF" opacity="0.50"/>
  <circle cx="24.0" cy="3.5"  r="0.60" fill="#FFD0FF" opacity="0.40"/>
  <circle cx="44.5" cy="24.0" r="0.55" fill="#A0B8FF" opacity="0.38"/>
</g>
</svg>
